<?xml version="1.0" encoding="UTF-8"?>
<svg version="1.1" xmlns="http://www.w3.org/2000/svg" width="275" height="300">
<path d="M0 0 C2.75 1.0625 2.75 1.0625 5 3 C6.81079582 9.56413486 5.35479238 13.81533774 3 20 C2.08327981 22.68061628 1.19900107 25.37176418 0.3125 28.0625 C-0.12838845 29.38689124 -0.56975459 30.7111236 -1.01171875 32.03515625 C-1.50091797 33.50275391 -1.50091797 33.50275391 -2 35 C-1.67 35 -1.34 35 -1 35 C-0.505 38.96 -0.505 38.96 0 43 C1.65 43 3.3 43 5 43 C5 42.34 5 41.68 5 41 C6.299375 40.8453125 6.299375 40.8453125 7.625 40.6875 C13.77164112 37.61417944 15.87871844 30.68557628 18.43359375 24.56640625 C20.03597509 20.91809163 21.84167921 17.5507895 23.875 14.125 C24.86113281 12.42730469 24.86113281 12.42730469 25.8671875 10.6953125 C28 8 28 8 30.6953125 7.0546875 C31.83613281 7.02761719 31.83613281 7.02761719 33 7 C33.495 7.495 33.495 7.495 34 8 C35.010625 7.649375 36.02125 7.29875 37.0625 6.9375 C42.51426887 5.38142832 47.06825845 6.37833347 52 9 C51.72285156 9.61488281 51.44570312 10.22976562 51.16015625 10.86328125 C50.79792969 11.67152344 50.43570313 12.47976562 50.0625 13.3125 C49.52302734 14.51326172 49.52302734 14.51326172 48.97265625 15.73828125 C47.92153959 18.09489608 47.92153959 18.09489608 47 21 C46.34 21 45.68 21 45 21 C41.54096814 30.21872212 38.69735374 39.17420414 41 49 C46.03689172 49.29628775 50.14062776 48.33862022 54.2734375 45.36328125 C60.09275806 39.68457624 63.70113343 33.6590643 67.2734375 26.453125 C68.73608594 23.52782813 70.17322934 20.71216926 72 18 C73.32594105 17.63837971 74.65938457 17.30271961 76 17 C76.40412109 16.06220703 76.40412109 16.06220703 76.81640625 15.10546875 C78.39767278 12.29258868 79.8713382 11.93564022 82.875 10.875 C87.58071575 9.24663566 87.58071575 9.24663566 92 7 C92.33 6.01 92.66 5.02 93 4 C93.66 3.67 94.32 3.34 95 3 C95.391875 2.484375 95.78375 1.96875 96.1875 1.4375 C98.97236026 -0.77118228 101.56993696 -0.19415451 105 0 C105 0.33 105 0.66 105 1 C103.68 1.33 102.36 1.66 101 2 C102.65 2 104.3 2 106 2 C105.50886719 3.11375 105.01773438 4.2275 104.51171875 5.375 C102.66488659 10.29988576 102.6566241 14.796143 102.8125 20 C102.82603516 20.87011719 102.83957031 21.74023438 102.85351562 22.63671875 C102.88848322 24.75808627 102.9422747 26.87912974 103 29 C106.77362719 27.25399339 109.20100034 25.10159421 112 22 C112.33 21.01 112.66 20.02 113 19 C116.5625 17.8125 116.5625 17.8125 120 17 C120.33 17.66 120.66 18.32 121 19 C123.97 19 126.94 19 130 19 C131.03568809 23.14275236 131.23312308 24.97179794 130 29 C127.0625 31.6875 127.0625 31.6875 124 34 C121.76534771 37.35197843 121.72891351 38.57791246 121.75 42.5 C121.74484375 43.4590625 121.7396875 44.418125 121.734375 45.40625 C121.82017391 48.23622897 121.82017391 48.23622897 124 51 C124.51949219 50.77183594 125.03898438 50.54367188 125.57421875 50.30859375 C129.74471445 48.58951696 132.53273787 47.46437864 137 49 C137 47.68 137 46.36 137 45 C138.65 45 140.3 45 142 45 C142 45.99 142 46.98 142 48 C142.66 48.33 143.32 48.66 144 49 C143.3503125 49.62648437 142.700625 50.25296875 142.03125 50.8984375 C141.1959375 51.71570313 140.360625 52.53296875 139.5 53.375 C138.6646875 54.18710938 137.829375 54.99921875 136.96875 55.8359375 C134.77568714 57.7589659 134.77568714 57.7589659 135 60 C133.27277272 60.22384382 131.54303993 60.42839969 129.8125 60.625 C128.84957031 60.74101562 127.88664063 60.85703125 126.89453125 60.9765625 C123.73442963 61.00215037 121.86196598 60.26022704 119 59 C118.01 59 117.02 59 116 59 C115.8865625 58.41734375 115.773125 57.8346875 115.65625 57.234375 C114.9462776 54.81708803 113.9536858 53.29530211 112.5 51.25 C109.80286006 47.11490361 109.26216018 43.89365673 109 39 C108.34 39 107.68 39 107 39 C105.43914755 40.8770704 105.43914755 40.8770704 103.9375 43.25 C103.41027344 44.03890625 102.88304687 44.8278125 102.33984375 45.640625 C99.98443596 49.78834017 99.89327085 53.30940112 99.97265625 58.0390625 C99.98619141 59.24804199 99.99972656 60.45702148 100.01367188 61.70263672 C100.02978516 62.9970166 100.04589844 64.29139648 100.0625 65.625 C100.18589741 79.82830268 99.35897237 93.85729021 98 108 C93.62874331 108.87954181 89.75446302 109.03315798 85.3125 108.6875 C84.19488281 108.60886719 83.07726562 108.53023438 81.92578125 108.44921875 C79 108 79 108 76 106 C75.7834375 105.1028125 75.7834375 105.1028125 75.5625 104.1875 C75.13571661 101.77774375 75.13571661 101.77774375 72.875 99.8125 C70.15462079 95.73193118 71.09835487 92.67558334 72 88 C72.89758138 84.66443913 74.0084089 81.43306863 75.1875 78.1875 C75.49776123 77.31528809 75.80802246 76.44307617 76.12768555 75.54443359 C78.28093698 69.6250494 80.72261273 64.0434232 83.73828125 58.5078125 C85.13076961 55.74008021 86.08233099 52.95549738 87 50 C84.29260171 52.59910236 81.75390502 55.33159684 79.25 58.125 C78.32960937 59.14980469 78.32960937 59.14980469 77.390625 60.1953125 C75.79654219 61.8843182 75.79654219 61.8843182 76 64 C72.42742531 65.23666047 69.64473199 64.89093449 66 64 C65.33744759 62.67489518 64.69130398 61.34144848 64.0625 60 C63.04573661 57.85059376 63.04573661 57.85059376 61 56 C58.90708843 56.08571661 58.90708843 56.08571661 57 57 C56.67 57.99 56.34 58.98 56 60 C50.73004074 62.30560718 43.44856301 63.00433396 38 61 C36.91015625 59.203125 36.91015625 59.203125 36 57 C34.70225132 54.91573697 33.36558298 52.86057509 32.0234375 50.8046875 C31 49 31 49 31 47 C27.47476896 50.25064061 27.47476896 50.25064061 24.9375 54.25 C24 56 24 56 21.9375 56.625 C21.298125 56.74875 20.65875 56.8725 20 57 C19.505 57.99 19.505 57.99 19 59 C16.32796816 57.66398408 15.49174069 55.93290412 13.875 53.4375 C13.33617188 52.61121094 12.79734375 51.78492188 12.2421875 50.93359375 C11.83226563 50.29550781 11.42234375 49.65742188 11 49 C7.15487935 49.45800024 7.15487935 49.45800024 4.4375 52 C3.963125 52.66 3.48875 53.32 3 54 C1 54.6875 1 54.6875 -1 55 C-1.99 55.33 -2.98 55.66 -4 56 C-4.72469883 57.78257283 -4.72469883 57.78257283 -5.02734375 59.97265625 C-5.18009766 60.79056641 -5.33285156 61.60847656 -5.49023438 62.45117188 C-5.63783203 63.31291016 -5.78542969 64.17464844 -5.9375 65.0625 C-7.19330644 72.3551876 -8.58898853 79.58898853 -14 85 C-14.309375 85.639375 -14.61875 86.27875 -14.9375 86.9375 C-16.12596787 89.24452587 -16.85304904 90.51934416 -19 92 C-22.6875 92.1875 -22.6875 92.1875 -26 92 C-26 92.66 -26 93.32 -26 94 C-27.74818591 94.22304441 -29.49870323 94.4278645 -31.25 94.625 C-32.22453125 94.74101562 -33.1990625 94.85703125 -34.203125 94.9765625 C-38.44568826 95.01211471 -40.52883224 93.31411184 -44 91 C-44.66 90.34 -45.32 89.68 -46 89 C-46.66 88.896875 -47.32 88.79375 -48 88.6875 C-48.66 88.460625 -49.32 88.23375 -50 88 C-51.125 85.6875 -51.125 85.6875 -52 83 C-52.65213539 81.65949948 -53.31379969 80.32338632 -54 79 C-47.12173913 70.15652174 -47.12173913 70.15652174 -42 69 C-40.41666667 67.58333333 -40.41666667 67.58333333 -39 66 C-37.515 65.01 -37.515 65.01 -36 64 C-35.401875 63.38125 -34.80375 62.7625 -34.1875 62.125 C-31.67056072 59.67997327 -28.95467701 57.880249 -26 56 C-27.175625 55.38125 -27.175625 55.38125 -28.375 54.75 C-31.21551399 52.85632401 -31.79596463 52.09609095 -33 49 C-33.515625 47.88625 -34.03125 46.7725 -34.5625 45.625 C-37.01422205 39.44239657 -37.91896211 32.6296552 -37 26 C-35.703125 23.75390625 -35.703125 23.75390625 -34 22 C-30.5 21.0625 -30.5 21.0625 -27 21 C-24.95010895 22.50129135 -24.11126934 23.37888579 -23.65942383 25.90112305 C-23.67513428 26.59761963 -23.69084473 27.29411621 -23.70703125 28.01171875 C-23.71669922 28.76904297 -23.72636719 29.52636719 -23.73632812 30.30664062 C-23.76146484 31.09232422 -23.78660156 31.87800781 -23.8125 32.6875 C-23.83280273 33.88342773 -23.83280273 33.88342773 -23.85351562 35.10351562 C-23.88882911 37.06929967 -23.94263553 39.03473582 -24 41 C-18.07915331 35.66285623 -18.07915331 35.66285623 -14 29 C-13.97733119 27.52086032 -14.0047208 26.04068457 -14.0625 24.5625 C-14.34095471 16.13291642 -11.82494023 6.95247294 -7 0 C-4.24779828 -1.37610086 -2.93781238 -0.81985462 0 0 Z M37 9 C38 11 38 11 38 11 Z M101 13 C101 14.65 101 16.3 101 18 C101.33 18 101.66 18 102 18 C102 16.35 102 14.7 102 13 C101.67 13 101.34 13 101 13 Z M85 18 C85 18.66 85 19.32 85 20 C83.125 21.0625 83.125 21.0625 81 22 C80.34 21.67 79.68 21.34 79 21 C77.98498002 22.86691174 76.98857921 24.74395344 76 26.625 C75.443125 27.66914063 74.88625 28.71328125 74.3125 29.7890625 C72.92485487 33.1838372 72.88586526 35.38242491 73 39 C72.30859375 41.08984375 72.30859375 41.08984375 71.4375 42.9375 C69.73884968 47.0571239 70.01383423 49.69673119 71 54 C80.47312398 46.28931769 87.59652221 38.67589979 89.40625 26.19921875 C89.65059762 23.79986089 89.85426252 21.40718119 90 19 C88.35 18.67 86.7 18.34 85 18 Z M100 18 C100 23.28 100 28.56 100 34 C100.33 34 100.66 34 101 34 C101 28.72 101 23.44 101 18 C100.67 18 100.34 18 100 18 Z M31 20 C32 22 32 22 32 22 Z M129 20 C130 22 130 22 130 22 Z M27 26 C27.33 26.66 27.66 27.32 28 28 C28.33 27.34 28.66 26.68 29 26 C28.34 26 27.68 26 27 26 Z M26 28 C24.9923048 29.7664657 23.99408286 31.53833823 23 33.3125 C22.443125 34.29863281 21.88625 35.28476563 21.3125 36.30078125 C19.78135247 38.94942471 19.78135247 38.94942471 20 42 C23.90384621 40.69871793 25.90212037 38.10098469 28.16015625 34.8203125 C29.28678638 32.8687649 29.28678638 32.8687649 28.3125 30.0625 C27.879375 29.381875 27.44625 28.70125 27 28 C26.67 28 26.34 28 26 28 Z M29 28 C30 32 30 32 30 32 Z M72 35 C73 39 73 39 73 39 Z M99 35 C99.33 35.66 99.66 36.32 100 37 C100.33 36.34 100.66 35.68 101 35 C100.34 35 99.68 35 99 35 Z M-4 45 C-3 47 -3 47 -3 47 Z M-16 49 C-16.33 50.65 -16.66 52.3 -17 54 C-16.34 53.67 -15.68 53.34 -15 53 C-15.33 51.68 -15.66 50.36 -16 49 Z M69 50 C69 51.65 69 53.3 69 55 C69.33 55 69.66 55 70 55 C70 53.35 70 51.7 70 50 C69.67 50 69.34 50 69 50 Z M-26 54 C-22 55 -22 55 -22 55 Z M-19 63 C-18 66 -18 66 -18 66 Z M-23 65 C-23.45375 65.61875 -23.9075 66.2375 -24.375 66.875 C-26.10279389 69.13442278 -27.40813228 69.92750301 -30 71 C-30 71.66 -30 72.32 -30 73 C-30.66 73.66 -31.32 74.32 -32 75 C-29.525 75.495 -29.525 75.495 -27 76 C-26.5875 75.4225 -26.175 74.845 -25.75 74.25 C-23.98042645 71.97483401 -22.07147622 70.00004601 -20 68 C-20.33 67.01 -20.66 66.02 -21 65 C-21.66 65 -22.32 65 -23 65 Z M-20 66 C-19 68 -19 68 -19 68 Z M89 67 C87.89131683 70.32604951 87.45822468 73.53058454 87 77 C86.34 76.67 85.68 76.34 85 76 C83.44252489 82.42458483 83.58890978 87.82158131 86 94 C88.03241727 93.36020151 88.03241727 93.36020151 90 92 C90.94026791 88.63458386 91.08047076 85.60810749 90.87890625 82.13671875 C90.83056641 81.25048828 90.78222656 80.36425781 90.73242188 79.45117188 C90.67634766 78.53916016 90.62027344 77.62714844 90.5625 76.6875 C90.51029297 75.75615234 90.45808594 74.82480469 90.40429688 73.86523438 C90.2751852 71.57643647 90.14024585 69.28813814 90 67 C89.67 67 89.34 67 89 67 Z M87 71 C88 74 88 74 88 74 Z M86 74 C87 76 87 76 87 76 Z " fill="#000000" transform="translate(107,191)"/>
<path d="M0 0 C2.79421503 0.86604326 4.06421546 1.39107221 5.671875 3.828125 C5.64287085 18.0111552 -5.72771332 33.92851691 -14.578125 44.265625 C-15.81949219 45.7196875 -15.81949219 45.7196875 -17.0859375 47.203125 C-17.82585937 48.069375 -18.56578125 48.935625 -19.328125 49.828125 C-24.2421128 55.64558141 -24.85391586 60.17898579 -24.69921875 67.77734375 C-24.32893095 70.82149928 -23.7248925 73.10368804 -22.328125 75.828125 C-20.28706861 76.71505803 -20.28706861 76.71505803 -18.328125 76.828125 C-18.328125 75.838125 -18.328125 74.848125 -18.328125 73.828125 C-17.52375 73.704375 -16.719375 73.580625 -15.890625 73.453125 C-15.045 73.246875 -14.199375 73.040625 -13.328125 72.828125 C-12.998125 72.168125 -12.668125 71.508125 -12.328125 70.828125 C-11.585625 70.725 -10.843125 70.621875 -10.078125 70.515625 C-6.36907923 69.58836356 -4.89841464 67.59612923 -2.328125 64.828125 C-1.585625 64.291875 -0.843125 63.755625 -0.078125 63.203125 C1.96900375 61.85439666 1.96900375 61.85439666 2.671875 58.828125 C4.109375 57.140625 4.109375 57.140625 5.671875 55.828125 C6.331875 55.828125 6.991875 55.828125 7.671875 55.828125 C8.496875 54.838125 9.321875 53.848125 10.171875 52.828125 C10.996875 51.838125 11.821875 50.848125 12.671875 49.828125 C13.331875 49.828125 13.991875 49.828125 14.671875 49.828125 C13.60331545 57.32399053 11.25942042 63.20144875 7.671875 69.828125 C7.15625 70.983125 6.640625 72.138125 6.109375 73.328125 C4.55678484 76.0282818 3.57721051 76.82628517 0.671875 77.828125 C1.001875 78.488125 1.331875 79.148125 1.671875 79.828125 C1.011875 79.828125 0.351875 79.828125 -0.328125 79.828125 C-0.328125 80.488125 -0.328125 81.148125 -0.328125 81.828125 C-7.09644093 88.00789172 -14.00247176 87.29511717 -22.671875 87.00390625 C-23.8784375 86.94589844 -25.085 86.88789062 -26.328125 86.828125 C-26.46927734 86.2101001 -26.61042969 85.5920752 -26.75585938 84.95532227 C-27.40980934 82.52449204 -28.4405546 80.8590815 -29.828125 78.765625 C-31.40886745 76.37153542 -32.40999032 74.58252904 -33.328125 71.828125 C-33.70324219 72.27542969 -34.07835937 72.72273438 -34.46484375 73.18359375 C-36.06978399 75.07960628 -37.69592284 76.95555102 -39.328125 78.828125 C-40.153125 79.776875 -40.978125 80.725625 -41.828125 81.703125 C-46.77158787 85.90506844 -53.1509987 84.95166753 -59.328125 84.828125 C-59.905625 83.77625 -60.483125 82.724375 -61.078125 81.640625 C-62.8942256 78.4494768 -64.94803621 75.63322965 -67.328125 72.828125 C-70.73133242 73.83988937 -72.08537831 74.47656082 -74.140625 77.453125 C-74.5325 78.236875 -74.924375 79.020625 -75.328125 79.828125 C-78.5075159 79.75242522 -80.63702188 79.46044463 -83.02734375 77.2734375 C-85.06684444 74.89319698 -86.92311394 72.63814713 -88.328125 69.828125 C-88.72 70.611875 -89.111875 71.395625 -89.515625 72.203125 C-91.59493886 75.21454508 -92.89999468 75.77331567 -96.328125 76.828125 C-97.318125 77.323125 -97.318125 77.323125 -98.328125 77.828125 C-98.31652344 79.09527344 -98.30492187 80.36242187 -98.29296875 81.66796875 C-98.28358081 83.36718601 -98.27448169 85.06640489 -98.265625 86.765625 C-98.25724609 87.59642578 -98.24886719 88.42722656 -98.24023438 89.28320312 C-98.22107888 94.20616593 -98.46990039 98.98210004 -99.10546875 103.86523438 C-99.40718837 106.52513103 -99.3966677 109.15495956 -99.328125 111.828125 C-99.988125 111.828125 -100.648125 111.828125 -101.328125 111.828125 C-101.51375 112.694375 -101.51375 112.694375 -101.703125 113.578125 C-102.33461324 115.85148267 -103.21670691 117.7534779 -104.328125 119.828125 C-105.648125 119.828125 -106.968125 119.828125 -108.328125 119.828125 C-108.658125 120.488125 -108.988125 121.148125 -109.328125 121.828125 C-111.26598585 121.35041977 -113.20340174 120.87090929 -115.140625 120.390625 C-116.21957031 120.12378906 -117.29851562 119.85695313 -118.41015625 119.58203125 C-123.99228973 118.13979328 -127.84958172 116.78773766 -131.453125 112.203125 C-132.88981218 110.32361539 -132.88981218 110.32361539 -134.328125 108.828125 C-134.988125 108.828125 -135.648125 108.828125 -136.328125 108.828125 C-137.93645377 105.30990582 -138.95603938 102.68531336 -138.328125 98.828125 C-137.12739193 96.69860189 -135.82423552 94.69757169 -134.421875 92.6953125 C-133.07540424 90.75735285 -133.07540424 90.75735285 -133.328125 87.828125 C-132.668125 87.828125 -132.008125 87.828125 -131.328125 87.828125 C-131.328125 87.168125 -131.328125 86.508125 -131.328125 85.828125 C-130.73 85.725 -130.131875 85.621875 -129.515625 85.515625 C-126.96495735 84.7139866 -125.96120505 83.92779936 -124.328125 81.828125 C-123.61364857 79.72479609 -123.61364857 79.72479609 -123.328125 77.828125 C-123.823125 78.158125 -124.318125 78.488125 -124.828125 78.828125 C-128.62476207 80.34677983 -131.23319919 80.28311676 -135.328125 79.828125 C-137.015625 77.703125 -137.015625 77.703125 -138.328125 74.828125 C-139.19928362 73.76573644 -140.09653786 72.72433293 -141.015625 71.703125 C-143.328125 68.828125 -143.328125 68.828125 -143.328125 65.828125 C-143.988125 65.828125 -144.648125 65.828125 -145.328125 65.828125 C-145.555 66.653125 -145.781875 67.478125 -146.015625 68.328125 C-147.37518678 71.95362309 -149.10072839 74.86866907 -151.20703125 78.09375 C-152.3765083 79.83325218 -152.3765083 79.83325218 -153.328125 81.828125 C-155.638125 81.828125 -157.948125 81.828125 -160.328125 81.828125 C-161.328125 79.828125 -162.328125 77.828125 -163.328125 75.828125 C-163.84971191 74.90926514 -164.37129883 73.99040527 -164.90869141 73.04370117 C-166.5012369 69.43595837 -166.71514952 66.93132894 -166.7265625 63.00390625 C-166.73042969 61.72837891 -166.73429687 60.45285156 -166.73828125 59.13867188 C-166.72667969 57.81931641 -166.71507812 56.49996094 -166.703125 55.140625 C-166.71381935 53.79621542 -166.7255289 52.45181351 -166.73828125 51.10742188 C-166.73441406 49.83576172 -166.73054688 48.56410156 -166.7265625 47.25390625 C-166.72317871 46.09286377 -166.71979492 44.93182129 -166.71630859 43.7355957 C-166.328125 40.828125 -166.328125 40.828125 -164.99462891 38.97338867 C-162.53851944 37.28548807 -160.26018348 37.07766189 -157.328125 36.828125 C-156.668125 37.158125 -156.008125 37.488125 -155.328125 37.828125 C-154.30839371 40.88731888 -154.21278898 42.95230525 -154.23046875 46.15234375 C-154.23369141 47.18037109 -154.23691406 48.20839844 -154.24023438 49.26757812 C-154.24861328 50.33943359 -154.25699219 51.41128906 -154.265625 52.515625 C-154.27013672 53.59908203 -154.27464844 54.68253906 -154.27929688 55.79882812 C-154.29108757 58.47531585 -154.30754437 61.15169277 -154.328125 63.828125 C-148.5870929 58.29045371 -146.86229271 50.72808055 -145.234375 43.11328125 C-144.328125 40.828125 -144.328125 40.828125 -142.671875 39.51171875 C-139.51243188 38.59021451 -136.5988669 38.70232723 -133.328125 38.828125 C-133.33336182 39.43809326 -133.33859863 40.04806152 -133.34399414 40.67651367 C-133.36485835 43.45620685 -133.37781513 46.23588351 -133.390625 49.015625 C-133.40319336 50.45518555 -133.40319336 50.45518555 -133.41601562 51.92382812 C-133.41923828 52.85517578 -133.42246094 53.78652344 -133.42578125 54.74609375 C-133.43101807 55.59969482 -133.43625488 56.4532959 -133.44165039 57.33276367 C-133.32391823 59.92059247 -132.89919544 62.30474453 -132.328125 64.828125 C-125.83617751 65.07781529 -123.33271426 64.31152105 -118.203125 60.515625 C-114.19979464 56.7733814 -113.40896183 53.91576605 -112.828125 48.640625 C-112.328125 44.828125 -112.328125 44.828125 -110.328125 42.828125 C-109.65519999 40.86122126 -109.65519999 40.86122126 -109.203125 38.703125 C-108.914375 37.424375 -108.625625 36.145625 -108.328125 34.828125 C-105.328125 35.828125 -105.328125 35.828125 -104.328125 36.828125 C-101.99994536 37.19573231 -99.6662865 37.53054081 -97.328125 37.828125 C-97.56208984 39.70757812 -97.56208984 39.70757812 -97.80078125 41.625 C-97.99777514 43.27599645 -98.19436881 44.92704069 -98.390625 46.578125 C-98.49439453 47.403125 -98.59816406 48.228125 -98.70507812 49.078125 C-98.79853516 49.87734375 -98.89199219 50.6765625 -98.98828125 51.5 C-99.07730713 52.2331543 -99.16633301 52.96630859 -99.25805664 53.72167969 C-99.36693937 56.99499048 -98.96206868 59.11810808 -96.765625 61.578125 C-96.29125 61.990625 -95.816875 62.403125 -95.328125 62.828125 C-95.10125 62.209375 -94.874375 61.590625 -94.640625 60.953125 C-92.93949542 58.1989152 -91.27436346 58.00662039 -88.328125 56.828125 C-86.98402238 54.81077295 -86.98402238 54.81077295 -86.328125 52.828125 C-85.668125 52.828125 -85.008125 52.828125 -84.328125 52.828125 C-83.895 51.69375 -83.461875 50.559375 -83.015625 49.390625 C-82.45875 48.215 -81.901875 47.039375 -81.328125 45.828125 C-80.338125 45.498125 -79.348125 45.168125 -78.328125 44.828125 C-76.45067047 42.4225989 -76.45067047 42.4225989 -74.703125 39.515625 C-74.09210938 38.55011719 -73.48109375 37.58460937 -72.8515625 36.58984375 C-71.55758454 34.24409397 -70.78715182 32.43961543 -70.328125 29.828125 C-66.328125 30.828125 -66.328125 30.828125 -64.390625 31.390625 C-61.99497193 31.89879383 -59.77012233 31.89595826 -57.328125 31.828125 C-56.833125 30.343125 -56.833125 30.343125 -56.328125 28.828125 C-53.688125 28.828125 -51.048125 28.828125 -48.328125 28.828125 C-47.16015625 30.5234375 -47.16015625 30.5234375 -46.328125 32.828125 C-47.33984375 35.1953125 -47.33984375 35.1953125 -49.015625 37.703125 C-49.5828125 38.58871094 -50.15 39.47429688 -50.734375 40.38671875 C-51.2603125 41.19238281 -51.78625 41.99804688 -52.328125 42.828125 C-56.70544429 50.44790303 -59.09849217 59.04593929 -58.328125 67.828125 C-57.81979262 70.26975067 -57.81979262 70.26975067 -56.328125 71.828125 C-53.77292579 72.63983728 -53.77292579 72.63983728 -51.328125 72.828125 C-51.328125 72.168125 -51.328125 71.508125 -51.328125 70.828125 C-50.58691406 70.7353125 -49.84570312 70.6425 -49.08203125 70.546875 C-43.68493114 69.13827015 -40.00241548 64.44064018 -37.06640625 59.859375 C-34.75923672 55.11736648 -33.64565925 50.12580187 -32.453125 45.015625 C-30.72695088 37.64015377 -27.94062237 31.49671209 -24.328125 24.828125 C-23.68198976 23.50460617 -23.04306382 22.1775513 -22.41015625 20.84765625 C-11.70788894 -1.60463452 -11.70788894 -1.60463452 0 0 Z M-8.328125 16.828125 C-7.328125 18.828125 -7.328125 18.828125 -7.328125 18.828125 Z M-9.328125 18.828125 C-8.328125 20.828125 -8.328125 20.828125 -8.328125 20.828125 Z M-10.328125 20.828125 C-9.328125 22.828125 -9.328125 22.828125 -9.328125 22.828125 Z M-11.328125 22.828125 C-10.328125 24.828125 -10.328125 24.828125 -10.328125 24.828125 Z M-66.328125 41.828125 C-65.328125 43.828125 -65.328125 43.828125 -65.328125 43.828125 Z M-70.328125 48.828125 C-75.1679072 56.43031811 -75.1679072 56.43031811 -78.328125 64.828125 C-75.02718713 63.42881438 -73.23631234 61.86595828 -71.078125 59.015625 C-70.55734375 58.34917969 -70.0365625 57.68273437 -69.5 56.99609375 C-68.11018973 54.42494476 -68.10692954 52.70869316 -68.328125 49.828125 C-68.988125 49.498125 -69.648125 49.168125 -70.328125 48.828125 Z M-93.328125 59.828125 C-92.328125 61.828125 -92.328125 61.828125 -92.328125 61.828125 Z M-111.328125 60.828125 C-112.48876104 65.08379047 -112.08985892 68.5116328 -111.328125 72.828125 C-110.998125 72.828125 -110.668125 72.828125 -110.328125 72.828125 C-110.328125 68.868125 -110.328125 64.908125 -110.328125 60.828125 C-110.658125 60.828125 -110.988125 60.828125 -111.328125 60.828125 Z M-156.328125 64.828125 C-155.998125 65.818125 -155.668125 66.808125 -155.328125 67.828125 C-154.998125 66.838125 -154.668125 65.848125 -154.328125 64.828125 C-154.988125 64.828125 -155.648125 64.828125 -156.328125 64.828125 Z M-113.328125 65.828125 C-112.328125 67.828125 -112.328125 67.828125 -112.328125 67.828125 Z M-115.328125 68.828125 C-116.95562537 71.15135953 -116.95562537 71.15135953 -118.328125 73.828125 C-117.998125 74.818125 -117.668125 75.808125 -117.328125 76.828125 C-115.678125 75.178125 -114.028125 73.528125 -112.328125 71.828125 C-113.16145833 69.66145833 -113.16145833 69.66145833 -115.328125 68.828125 Z M-134.328125 77.828125 C-134.328125 78.158125 -134.328125 78.488125 -134.328125 78.828125 C-130.91156476 78.99489782 -130.91156476 78.99489782 -127.328125 78.828125 C-126.668125 78.168125 -126.008125 77.508125 -125.328125 76.828125 C-128.60087526 76.828125 -131.174757 77.12737656 -134.328125 77.828125 Z M-111.328125 83.828125 C-111.658125 84.818125 -111.988125 85.808125 -112.328125 86.828125 C-112.988125 86.498125 -113.648125 86.168125 -114.328125 85.828125 C-123.28551346 94.08218855 -123.28551346 94.08218855 -128.328125 104.828125 C-127.668125 105.488125 -127.008125 106.148125 -126.328125 106.828125 C-125.338125 106.828125 -124.348125 106.828125 -123.328125 106.828125 C-122.049375 106.93125 -120.770625 107.034375 -119.453125 107.140625 C-116.03580678 107.12803819 -115.36552486 106.85438447 -112.390625 104.765625 C-108.26650924 98.89188437 -109.20290815 91.74287781 -109.328125 84.828125 C-109.988125 84.498125 -110.648125 84.168125 -111.328125 83.828125 Z M-10.328125 83.828125 C-9.328125 85.828125 -9.328125 85.828125 -9.328125 85.828125 Z M-111.328125 103.828125 C-110.328125 105.828125 -110.328125 105.828125 -110.328125 105.828125 Z M-123.328125 107.828125 C-123.328125 108.158125 -123.328125 108.488125 -123.328125 108.828125 C-121.348125 108.828125 -119.368125 108.828125 -117.328125 108.828125 C-117.328125 108.498125 -117.328125 108.168125 -117.328125 107.828125 C-119.308125 107.828125 -121.288125 107.828125 -123.328125 107.828125 Z " fill="#005105" transform="translate(260.328125,24.171875)"/>
<path d="M0 0 C1.6875 1.5 1.6875 1.5 3 3 C5.75749108 4.97243667 5.75749108 4.97243667 8.0625 5.875 C10 7 10 7 10.875 8.9375 C11.91554432 11.32862305 11.91554432 11.32862305 15.0625 12.4375 C16.5165625 13.2109375 16.5165625 13.2109375 18 14 C18.38343216 15.65585889 18.70928299 17.32537392 19 19 C19.77978122 20.73343257 20.61515696 22.44276933 21.5 24.125 C23.92494187 28.76340626 25.13929745 32.16888982 25.125 37.4375 C25.12886719 38.85869141 25.12886719 38.85869141 25.1328125 40.30859375 C25.012535 42.74598185 24.89888909 44.73211317 24 47 C18.5625 48.8125 18.5625 48.8125 16 49 C11.80485257 45.87544785 11.279299 42.84205473 10.5 37.8125 C9.48825033 31.95657248 8.43947837 25.98218559 5 21 C4.01 20.67 3.02 20.34 2 20 C1.505 18.515 1.505 18.515 1 17 C-5.42762324 15.25737293 -5.42762324 15.25737293 -11.9375 15.6875 C-13.99806718 16.88355417 -13.99806718 16.88355417 -15.375 18.4375 C-17 20 -17 20 -20.375 21.375 C-25.56207231 23.70023931 -28.584152 26.53670213 -30.8125 31.75 C-32.62910855 37.2101473 -32.68669199 42.46452188 -31.1875 48 C-30.09869127 50.33059363 -30.09869127 50.33059363 -27 51 C-26.3125 53.0625 -26.3125 53.0625 -26 55 C-25.15115234 55.18175781 -25.15115234 55.18175781 -24.28515625 55.3671875 C-23.55167969 55.53476562 -22.81820313 55.70234375 -22.0625 55.875 C-20.96615234 56.11863281 -20.96615234 56.11863281 -19.84765625 56.3671875 C-18 57 -18 57 -17 59 C-12.98120437 59.9099712 -9.03128212 60.16004377 -4.921875 60.28125 C-3.19215454 60.33611572 -3.19215454 60.33611572 -1.42749023 60.39208984 C-0.21391846 60.4277002 0.99965332 60.46331055 2.25 60.5 C4.76435439 60.58501153 7.27867761 60.67095014 9.79296875 60.7578125 C13.20123649 60.873347 16.60945076 60.98799477 20.01806641 61.09277344 C22.53363883 61.17314893 25.04781007 61.2710609 27.5625 61.375 C28.28663086 61.39369141 29.01076172 61.41238281 29.75683594 61.43164062 C34.53713038 61.65137054 34.53713038 61.65137054 36.8359375 63.3828125 C37.22007813 63.91648437 37.60421875 64.45015625 38 65 C38.680625 65.825 39.36125 66.65 40.0625 67.5 C43.09273742 71.40998377 44.50780761 73.75080514 44.38671875 78.80859375 C43.40454354 84.37425328 39.26983193 89.46634599 35 93 C34.34 93 33.68 93 33 93 C32.938125 93.61875 32.87625 94.2375 32.8125 94.875 C32.544375 95.57625 32.27625 96.2775 32 97 C30.34795544 97.70211894 28.68076231 98.36971413 27 99 C26.505 100.485 26.505 100.485 26 102 C24.34561387 102.69658363 22.67745682 103.36096883 21 104 C19.1108127 105.6193034 18.11300018 106.77399963 17 109 C16.360625 109.12375 15.72125 109.2475 15.0625 109.375 C14.0415625 109.684375 14.0415625 109.684375 13 110 C12.30062468 111.31647119 11.63270867 112.65022151 11 114 C9 114.66666667 7 115.33333333 5 116 C3.65909241 116.65129797 2.32407669 117.31513275 1 118 C1 118.66 1 119.32 1 120 C-0.46109063 119.74445946 -1.91888096 119.46999628 -3.375 119.1875 C-4.59316406 118.96126953 -4.59316406 118.96126953 -5.8359375 118.73046875 C-8 118 -8 118 -10 115 C-10.33 115 -10.66 115 -11 115 C-10.77820077 108.78962167 -9.46890607 105.61167208 -5.47265625 100.859375 C-3.91827636 99.04623241 -3.91827636 99.04623241 -2.99609375 96.828125 C-2 95 -2 95 1 94 C4.04134491 92.33075929 4.04134491 92.33075929 5 90 C5.99 90.33 6.98 90.66 8 91 C7.58893141 93.95969382 7.21179245 95.72304065 5.375 98.125 C4.92125 98.74375 4.4675 99.3625 4 100 C4.33 100.99 4.66 101.98 5 103 C5.99 101.515 5.99 101.515 7 100 C7.99 100 8.98 100 10 100 C10.2475 99.195625 10.495 98.39125 10.75 97.5625 C11.36875 96.2940625 11.36875 96.2940625 12 95 C12.9590625 94.7834375 12.9590625 94.7834375 13.9375 94.5625 C14.618125 94.376875 15.29875 94.19125 16 94 C17.03291676 92.01679982 18.0337499 90.01652194 19 88 C19.99 87.67 20.98 87.34 22 87 C22.495 85.515 22.495 85.515 23 84 C23.66 84 24.32 84 25 84 C26.59395916 81.75116689 26.59395916 81.75116689 28.125 79 C28.66382812 78.071875 29.20265625 77.14375 29.7578125 76.1875 C30.16773437 75.465625 30.57765625 74.74375 31 74 C27.75228765 72.07129838 25.36690378 71.76269706 21.61328125 71.8046875 C20.59298828 71.81113281 19.57269531 71.81757812 18.52148438 71.82421875 C16.93303711 71.84935547 16.93303711 71.84935547 15.3125 71.875 C14.24193359 71.88402344 13.17136719 71.89304687 12.06835938 71.90234375 C9.37870033 71.92622151 6.68946455 71.96050713 4 72 C3 72 2 72 1 72 C1 71.34 1 70.68 1 70 C0.09121094 70.50273437 0.09121094 70.50273437 -0.8359375 71.015625 C-7.59815297 74.30310206 -7.59815297 74.30310206 -11.890625 73.375 C-14.34474754 72.36530387 -16.67870443 71.28412096 -19 70 C-19 69.34 -19 68.68 -19 68 C-20.485 68.495 -20.485 68.495 -22 69 C-23.485 68.505 -23.485 68.505 -25 68 C-25 67.34 -25 66.68 -25 66 C-25.928125 65.773125 -26.85625 65.54625 -27.8125 65.3125 C-31.52942635 63.78200092 -32.37907396 62.60205786 -34 59 C-34 58.34 -34 57.68 -34 57 C-34.66 57 -35.32 57 -36 57 C-41.43336358 44.24129803 -40.81457181 35.01884215 -36 22 C-32.76572237 15.03991319 -28.13844709 9.64196405 -22.85546875 4.12890625 C-20.8025506 2.04919505 -20.8025506 2.04919505 -20 -1 C-13.92157402 -3.3368171 -5.79481154 -2.68540047 0 0 Z M12 70 C12 70.33 12 70.66 12 71 C16.62 71 21.24 71 26 71 C26 70.67 26 70.34 26 70 C21.38 70 16.76 70 12 70 Z " fill="#004E04" transform="translate(40,2)"/>
<path d="M0 0 C6.05769231 0.20192308 6.05769231 0.20192308 8.75 1.125 C9.88671875 3.171875 9.88671875 3.171875 10.75 5.125 C11.63816406 5.11339844 12.52632812 5.10179687 13.44140625 5.08984375 C21.9068023 5.03004781 30.35265304 5.18136042 38.8125 5.5 C39.78711182 5.53085693 40.76172363 5.56171387 41.76586914 5.59350586 C45.92471879 5.76596958 49.75776801 5.98314945 53.74609375 7.2265625 C56.75919712 8.44127322 56.75919712 8.44127322 59.75 7.125 C61.75 8.125 61.75 8.125 62.5625 10 C62.75 12.125 62.75 12.125 61.625 13.75 C58.33219133 16.16472636 54.70086655 17.24702966 50.75 18.125 C51.41 18.455 52.07 18.785 52.75 19.125 C51.71875 19.269375 50.6875 19.41375 49.625 19.5625 C47.34383442 19.89363694 45.06710695 20.27029639 42.8125 20.75 C38.91209627 21.22760046 35.62920203 20.72694514 31.75 20.125 C31.255 21.61 31.255 21.61 30.75 23.125 C26.13 23.125 21.51 23.125 16.75 23.125 C16.75 23.785 16.75 24.445 16.75 25.125 C15.76 25.125 14.77 25.125 13.75 25.125 C13.75 27.435 13.75 29.745 13.75 32.125 C13.09 32.125 12.43 32.125 11.75 32.125 C10.85678318 54.11807171 10.85678318 54.11807171 10.75 76.125 C11.74 76.62 11.74 76.62 12.75 77.125 C13.09375 79.27734375 13.09375 79.27734375 13.25 82.0625 C13.80466602 91.42276296 13.80466602 91.42276296 16.87109375 100.14453125 C18.42775021 103.65219715 16.81675879 106.56913738 15.75 110.125 C11.75 110.125 11.75 110.125 10.37109375 108.796875 C6.71116355 102.85401805 5.15880585 96.92093765 3.75 90.125 C3.55535156 89.31160156 3.36070313 88.49820313 3.16015625 87.66015625 C1.73134291 81.3921503 1.32785502 75.1500755 0.99609375 68.73828125 C0.8010796 65.16645403 0.8010796 65.16645403 0.2578125 61.8203125 C-0.3889432 57.113921 -0.60420122 52.43056577 -0.8125 47.6875 C-0.85568359 46.76517578 -0.89886719 45.84285156 -0.94335938 44.89257812 C-1.04854931 42.63683837 -1.15069107 40.38100501 -1.25 38.125 C-1.91 38.125 -2.57 38.125 -3.25 38.125 C-3.25 33.175 -3.25 28.225 -3.25 23.125 C-5.23 22.795 -7.21 22.465 -9.25 22.125 C-9.58 21.795 -9.91 21.465 -10.25 21.125 C-12.4736068 23.0504644 -12.4736068 23.0504644 -13.25 26.125 C-12.71805397 28.66518266 -12.71805397 28.66518266 -11.8125 31.3125 C-11.52503906 32.21355469 -11.23757812 33.11460937 -10.94140625 34.04296875 C-10.71324219 34.73003906 -10.48507813 35.41710937 -10.25 36.125 C-11.24 36.62 -11.24 36.62 -12.25 37.125 C-13.9 34.155 -15.55 31.185 -17.25 28.125 C-17.91 28.125 -18.57 28.125 -19.25 28.125 C-19.6625 27.09375 -20.075 26.0625 -20.5 25 C-21.61253519 22.37229785 -22.74154371 20.4021416 -24.375 18 C-26.2218645 15.1681411 -26.71113467 13.39118376 -27.25 10.125 C-19.89479068 9.48838219 -12.63395674 8.99984819 -5.25 9.125 C-5.105625 7.825625 -4.96125 6.52625 -4.8125 5.1875 C-4.25429185 0.16362661 -4.25429185 0.16362661 0 0 Z M-2.25 1.125 C-2.25 1.455 -2.25 1.785 -2.25 2.125 C-0.6 2.125 1.05 2.125 2.75 2.125 C2.75 1.795 2.75 1.465 2.75 1.125 C1.1 1.125 -0.55 1.125 -2.25 1.125 Z M11.75 6.125 C11.75 6.455 11.75 6.785 11.75 7.125 C16.7 7.125 21.65 7.125 26.75 7.125 C26.75 6.795 26.75 6.465 26.75 6.125 C21.8 6.125 16.85 6.125 11.75 6.125 Z M-4.25 7.125 C-3.25 9.125 -3.25 9.125 -3.25 9.125 Z M-14.25 18.125 C-13.25 21.125 -13.25 21.125 -13.25 21.125 Z M10.75 85.125 C10.75 90.075 10.75 95.025 10.75 100.125 C12.84566561 95.93366878 12.90337517 94.81335147 12.375 90.375 C12.26414063 89.39015625 12.15328125 88.4053125 12.0390625 87.390625 C11.94367187 86.64296875 11.84828125 85.8953125 11.75 85.125 C11.42 85.125 11.09 85.125 10.75 85.125 Z M13.75 98.125 C14.75 100.125 14.75 100.125 14.75 100.125 Z " fill="#000000" transform="translate(27.25,151.875)"/>
<path d="M0 0 C3.97915159 -0.02886984 7.95827653 -0.04675406 11.9375 -0.0625 C13.07380859 -0.07087891 14.21011719 -0.07925781 15.38085938 -0.08789062 C16.46044922 -0.09111328 17.54003906 -0.09433594 18.65234375 -0.09765625 C20.15269165 -0.10551147 20.15269165 -0.10551147 21.68334961 -0.11352539 C24 0 24 0 25 1 C27.18019479 1.39666227 29.3696463 1.74315237 31.5625 2.0625 C33.35880859 2.32740234 33.35880859 2.32740234 35.19140625 2.59765625 C36.11824219 2.73042969 37.04507813 2.86320313 38 3 C38.495 4.98 38.495 4.98 39 7 C37.99839844 7.13277344 36.99679687 7.26554688 35.96484375 7.40234375 C34.62239346 7.58071127 33.27994567 7.7590977 31.9375 7.9375 C31.28072266 8.02451172 30.62394531 8.11152344 29.94726562 8.20117188 C28.62311082 8.37729099 27.29937447 8.55658473 25.97607422 8.73901367 C24.03066575 8.99594988 22.07965838 9.20928042 20.12890625 9.421875 C16.84582017 9.69147687 16.84582017 9.69147687 15 12.3125 C13.90754786 15.24846514 14.10628517 16.12025221 15 19 C14.34 19.66 13.68 20.32 13 21 C13 21.33 13 21.66 13 22 C11.02 22 9.04 22 7 22 C6.79375 21.360625 6.5875 20.72125 6.375 20.0625 C5.1317049 17.67975948 5.1317049 17.67975948 2.125 17.375 C0.578125 17.189375 0.578125 17.189375 -1 17 C-3.140625 16.2578125 -3.140625 16.2578125 -5 15 C-5.6796875 12.90625 -5.6796875 12.90625 -5.875 10.5 C-5.95492187 9.7059375 -6.03484375 8.911875 -6.1171875 8.09375 C-6 6 -6 6 -4 4 C-3.01 3.34 -2.02 2.68 -1 2 C-0.67 1.34 -0.34 0.68 0 0 Z M11 12 C11 12.66 11 13.32 11 14 C11.66 13.67 12.32 13.34 13 13 C12.34 12.67 11.68 12.34 11 12 Z " fill="#000000" transform="translate(230,182)"/>
<path d="M0 0 C0 2 0 2 -1.375 3.4375 C-1.91125 3.953125 -2.4475 4.46875 -3 5 C-3.99 6.485 -3.99 6.485 -5 8 C-7.24156923 11.36235385 -7.39172841 11.23460906 -11 12 C-14.04134491 13.66924071 -14.04134491 13.66924071 -15 16 C-15.66 16 -16.32 16 -17 16 C-17.33 16.66 -17.66 17.32 -18 18 C-20.96175123 17.38722388 -22.38058783 16.74627478 -25 15 C-26.98799818 14.29835358 -28.98698517 13.62627128 -31 13 C-30.34 10.03 -29.68 7.06 -29 4 C-22.67157717 2.92815902 -16.33938219 1.88011156 -10 0.875 C-8.4221875 0.62363281 -8.4221875 0.62363281 -6.8125 0.3671875 C-4 0 -4 0 0 0 Z " fill="#004C04" transform="translate(186,31)"/>
<path d="M0 0 C9.24 0 18.48 0 28 0 C28 0.33 28 0.66 28 1 C18.76 1 9.52 1 0 1 C0 0.67 0 0.34 0 0 Z " fill="#000100" transform="translate(29,61)"/>
<path d="M0 0 C0.33 0 0.66 0 1 0 C1 5.61 1 11.22 1 17 C0.34 17.33 -0.32 17.66 -1 18 C-0.505 9.09 -0.505 9.09 0 0 Z " fill="#000000" transform="translate(207,273)"/>
<path d="M0 0 C1.60294922 0.01353516 1.60294922 0.01353516 3.23828125 0.02734375 C4.04652344 0.03894531 4.85476562 0.05054688 5.6875 0.0625 C5.6875 0.3925 5.6875 0.7225 5.6875 1.0625 C-5.83414009 2.21056378 -5.83414009 2.21056378 -11.3125 2.0625 C-11.3125 1.7325 -11.3125 1.4025 -11.3125 1.0625 C-7.47525828 0.15836327 -3.93747726 -0.04326898 0 0 Z " fill="#000000" transform="translate(12.3125,158.9375)"/>
<path d="M0 0 C0.99 0.33 1.98 0.66 3 1 C2.67 2.32 2.34 3.64 2 5 C1.01 4.34 0.02 3.68 -1 3 C-0.67 2.01 -0.34 1.02 0 0 Z M-4 3 C-3.01 3.33 -2.02 3.66 -1 4 C-1.33 4.66 -1.66 5.32 -2 6 C-2.66 5.67 -3.32 5.34 -4 5 C-4 4.34 -4 3.68 -4 3 Z " fill="#002B01" transform="translate(45,92)"/>
<path d="M0 0 C0.33 0 0.66 0 1 0 C1 5.94 1 11.88 1 18 C0.67 18 0.34 18 0 18 C0 12.06 0 6.12 0 0 Z " fill="#000100" transform="translate(92,77)"/>
<path d="M0 0 C2.05279359 4.10558718 2.2216942 5.80206685 2.125 10.25 C2.10695313 11.32765625 2.08890625 12.4053125 2.0703125 13.515625 C2.03550781 14.74539062 2.03550781 14.74539062 2 16 C1.67 16 1.34 16 1 16 C0.67 10.72 0.34 5.44 0 0 Z " fill="#000000" transform="translate(26,213)"/>
<path d="M0 0 C0.99 0.33 1.98 0.66 3 1 C1.62845496 3.95409701 0.01136276 6.44008376 -2 9 C-1.34 6.03 -0.68 3.06 0 0 Z " fill="#002801" transform="translate(157,35)"/>
<path d="M0 0 C0.33 0 0.66 0 1 0 C1 4.95 1 9.9 1 15 C0.67 15 0.34 15 0 15 C0 10.05 0 5.1 0 0 Z " fill="#000000" transform="translate(38,213)"/>
<path d="M0 0 C0.33 0 0.66 0 1 0 C1 4.62 1 9.24 1 14 C0.67 14 0.34 14 0 14 C0 9.38 0 4.76 0 0 Z " fill="#000000" transform="translate(207,244)"/>
<path d="M0 0 C0.33 0 0.66 0 1 0 C1 4.62 1 9.24 1 14 C0.67 14 0.34 14 0 14 C0 9.38 0 4.76 0 0 Z " fill="#000000" transform="translate(25,199)"/>
<path d="M0 0 C0.33 0 0.66 0 1 0 C1.22151549 1.79008467 1.42682213 3.58218162 1.625 5.375 C1.74101563 6.37273437 1.85703125 7.37046875 1.9765625 8.3984375 C1.98429687 9.25695312 1.99203125 10.11546875 2 11 C1.34 11.66 0.68 12.32 0 13 C0 8.71 0 4.42 0 0 Z " fill="#000100" transform="translate(106,75)"/>
<path d="M0 0 C0.33 0 0.66 0 1 0 C1.33 3.96 1.66 7.92 2 12 C-0.13586678 8.79619983 -0.23132175 7.98060033 -0.125 4.3125 C-0.10695313 3.50425781 -0.08890625 2.69601563 -0.0703125 1.86328125 C-0.04710938 1.24839844 -0.02390625 0.63351563 0 0 Z " fill="#000000" transform="translate(92,65)"/>
<path d="M0 0 C2 2 2 2 2.1953125 4.6015625 C2.17210938 5.59929687 2.14890625 6.59703125 2.125 7.625 C2.10695313 8.62789062 2.08890625 9.63078125 2.0703125 10.6640625 C2.03550781 11.82035156 2.03550781 11.82035156 2 13 C1.67 13 1.34 13 1 13 C0.67 8.71 0.34 4.42 0 0 Z " fill="#000100" transform="translate(106,62)"/>
<path d="M0 0 C0.33 0 0.66 0 1 0 C1 4.29 1 8.58 1 13 C0.67 13 0.34 13 0 13 C0 8.71 0 4.42 0 0 Z " fill="#000000" transform="translate(208,259)"/>
<path d="M0 0 C0.33 0 0.66 0 1 0 C1.17700355 4.60209225 1.10814567 6.78370866 -1 11 C-0.67 7.37 -0.34 3.74 0 0 Z " fill="#000000" transform="translate(103,247)"/>
<path d="M0 0 C0.33 0 0.66 0 1 0 C1 3.96 1 7.92 1 12 C0.67 12 0.34 12 0 12 C0 8.04 0 4.08 0 0 Z " fill="#000100" transform="translate(236,83)"/>
<path d="M0 0 C0.33 0 0.66 0 1 0 C1 3.96 1 7.92 1 12 C0.67 12 0.34 12 0 12 C0 8.04 0 4.08 0 0 Z " fill="#000100" transform="translate(127,72)"/>
<path d="M0 0 C0.33 0 0.66 0 1 0 C1 3.96 1 7.92 1 12 C0.67 12 0.34 12 0 12 C0 8.04 0 4.08 0 0 Z " fill="#000100" transform="translate(66,33)"/>
<path d="M0 0 C1.60031344 3.20062687 0.03173691 5.72271806 -1 9 C-2.60031344 5.79937313 -1.03173691 3.27728194 0 0 Z " fill="#000000" transform="translate(46,253)"/>
<path d="M0 0 C0.33 0 0.66 0 1 0 C1 3.63 1 7.26 1 11 C0.67 11 0.34 11 0 11 C0 7.37 0 3.74 0 0 Z " fill="#000000" transform="translate(68,217)"/>
<path d="M0 0 C0.33 0 0.66 0 1 0 C1 3.63 1 7.26 1 11 C0.67 11 0.34 11 0 11 C0 7.37 0 3.74 0 0 Z " fill="#000000" transform="translate(162,69)"/>
<path d="M0 0 C0.33 0 0.66 0 1 0 C1 3.3 1 6.6 1 10 C0.67 10 0.34 10 0 10 C0 6.7 0 3.4 0 0 Z " fill="#000000" transform="translate(229,229)"/>
<path d="M0 0 C0.66 0.66 1.32 1.32 2 2 C0.68 3.32 -0.64 4.64 -2 6 C-1.34 4.02 -0.68 2.04 0 0 Z " fill="#000000" transform="translate(130,226)"/>
<path d="M0 0 C0.33 0 0.66 0 1 0 C1 3.3 1 6.6 1 10 C0.67 10 0.34 10 0 10 C0 6.7 0 3.4 0 0 Z " fill="#000000" transform="translate(39,184)"/>
<path d="M0 0 C0.66 0.66 1.32 1.32 2 2 C0.68 3.32 -0.64 4.64 -2 6 C-1.34 4.02 -0.68 2.04 0 0 Z " fill="#000000" transform="translate(186,81)"/>
<path d="M0 0 C0.33 0 0.66 0 1 0 C1 2.64 1 5.28 1 8 C0.67 8 0.34 8 0 8 C-0.38063221 5.6739143 -0.71269945 3.33944736 -1 1 C-0.67 0.67 -0.34 0.34 0 0 Z " fill="#000000" transform="translate(215,230)"/>
<path d="M0 0 C0.33 0 0.66 0 1 0 C1 2.97 1 5.94 1 9 C0.67 9 0.34 9 0 9 C0 6.03 0 3.06 0 0 Z " fill="#000000" transform="translate(194,211)"/>
<path d="M0 0 C0.33 0 0.66 0 1 0 C1 2.31 1 4.62 1 7 C0.01 7.495 0.01 7.495 -1 8 C-0.67 5.36 -0.34 2.72 0 0 Z " fill="#000000" transform="translate(162,122)"/>
<path d="M0 0 C0.33 0 0.66 0 1 0 C1.33 1.98 1.66 3.96 2 6 C1.01 6.495 1.01 6.495 0 7 C0 4.69 0 2.38 0 0 Z " fill="#000000" transform="translate(83,224)"/>
<path d="M0 0 C0.33 0 0.66 0 1 0 C1 2.64 1 5.28 1 8 C0.67 8 0.34 8 0 8 C0 5.36 0 2.72 0 0 Z " fill="#000000" transform="translate(39,195)"/>
<path d="M0 0 C0.625 1.8125 0.625 1.8125 1 4 C0.34 4.99 -0.32 5.98 -1 7 C-0.67 4.69 -0.34 2.38 0 0 Z " fill="#000000" transform="translate(204,77)"/>
<path d="M0 0 C0.33 0 0.66 0 1 0 C1 2.64 1 5.28 1 8 C0.67 8 0.34 8 0 8 C0 5.36 0 2.72 0 0 Z " fill="#000000" transform="translate(85,75)"/>
<path d="M0 0 C0.33 0 0.66 0 1 0 C1 2.64 1 5.28 1 8 C0.67 8 0.34 8 0 8 C0 5.36 0 2.72 0 0 Z " fill="#000100" transform="translate(8,38)"/>
<path d="M0 0 C2.31 0.33 4.62 0.66 7 1 C4 2 4 2 1.8125 1.0625 C1.214375 0.711875 0.61625 0.36125 0 0 Z " fill="#000000" transform="translate(254,23)"/>
<path d="M0 0 C2.97 0.495 2.97 0.495 6 1 C4.125 1.625 4.125 1.625 2 2 C1.34 1.34 0.68 0.68 0 0 Z " fill="#000000" transform="translate(148,253)"/>
<path d="M0 0 C0.33 0.66 0.66 1.32 1 2 C0.01 3.485 0.01 3.485 -1 5 C-1.33 4.34 -1.66 3.68 -2 3 C-1.34 2.01 -0.68 1.02 0 0 Z " fill="#000000" transform="translate(191,244)"/>
<path d="M0 0 C0.33 0 0.66 0 1 0 C1 2.31 1 4.62 1 7 C0.67 7 0.34 7 0 7 C0 4.69 0 2.38 0 0 Z " fill="#000000" transform="translate(38,204)"/>
<path d="M0 0 C2.31 0 4.62 0 7 0 C7 0.33 7 0.66 7 1 C4.69 1 2.38 1 0 1 C0 0.67 0 0.34 0 0 Z " fill="#000000" transform="translate(247,192)"/>
<path d="M0 0 C0.33 0 0.66 0 1 0 C1 2.31 1 4.62 1 7 C0.67 7 0.34 7 0 7 C0 4.69 0 2.38 0 0 Z " fill="#000000" transform="translate(202,85)"/>
<path d="M0 0 C1.0625 1.875 1.0625 1.875 2 4 C1.67 4.66 1.34 5.32 1 6 C0 5 0 5 -0.0625 2.4375 C-0.041875 1.633125 -0.02125 0.82875 0 0 Z " fill="#000100" transform="translate(48,32)"/>
<path d="M0 0 C0.33 0.99 0.66 1.98 1 3 C0.34 3.66 -0.32 4.32 -1 5 C-0.67 3.35 -0.34 1.7 0 0 Z " fill="#000000" transform="translate(182,264)"/>
<path d="M0 0 C0.33 0 0.66 0 1 0 C1 1.98 1 3.96 1 6 C0.67 6 0.34 6 0 6 C0 4.02 0 2.04 0 0 Z " fill="#000000" transform="translate(43,244)"/>
<path d="M0 0 C0.33 0 0.66 0 1 0 C1 1.98 1 3.96 1 6 C0.67 6 0.34 6 0 6 C0 4.02 0 2.04 0 0 Z " fill="#000000" transform="translate(25,192)"/>
<path d="M0 0 C1.98 0 3.96 0 6 0 C6 0.33 6 0.66 6 1 C4.02 1 2.04 1 0 1 C0 0.67 0 0.34 0 0 Z " fill="#000000" transform="translate(255,182)"/>
<path d="M0 0 C1.98 0 3.96 0 6 0 C6 0.33 6 0.66 6 1 C4.02 1 2.04 1 0 1 C0 0.67 0 0.34 0 0 Z " fill="#000000" transform="translate(77,157)"/>
<path d="M0 0 C1.98 0 3.96 0 6 0 C6 0.33 6 0.66 6 1 C4.02 1 2.04 1 0 1 C0 0.67 0 0.34 0 0 Z " fill="#000000" transform="translate(204,109)"/>
<path d="M0 0 C0.66 0.33 1.32 0.66 2 1 C0.02 1.99 0.02 1.99 -2 3 C-1.34 2.01 -0.68 1.02 0 0 Z " fill="#000100" transform="translate(213,92)"/>
<path d="M0 0 C0.99 0.495 0.99 0.495 2 1 C1.67 1.99 1.34 2.98 1 4 C0.67 2.68 0.34 1.36 0 0 Z " fill="#000000" transform="translate(161,80)"/>
<path d="M0 0 C0.33 0 0.66 0 1 0 C1 1.65 1 3.3 1 5 C0.34 4.01 -0.32 3.02 -1 2 C-0.67 1.34 -0.34 0.68 0 0 Z " fill="#000100" transform="translate(190,74)"/>
<path d="M0 0 C0.33 0.99 0.66 1.98 1 3 C0.34 3.66 -0.32 4.32 -1 5 C-0.67 3.35 -0.34 1.7 0 0 Z " fill="#000000" transform="translate(207,68)"/>
<path d="M0 0 C0.33 0 0.66 0 1 0 C1 1.98 1 3.96 1 6 C0.67 6 0.34 6 0 6 C0 4.02 0 2.04 0 0 Z " fill="#000000" transform="translate(128,65)"/>
<path d="M0 0 C1.98 0 3.96 0 6 0 C6 0.33 6 0.66 6 1 C4.02 1 2.04 1 0 1 C0 0.67 0 0.34 0 0 Z " fill="#000000" transform="translate(172,30)"/>
<path d="M0 0 C0.33 0 0.66 0 1 0 C1 1.65 1 3.3 1 5 C0.67 5 0.34 5 0 5 C0 3.35 0 1.7 0 0 Z " fill="#000000" transform="translate(206,292)"/>
<path d="M0 0 C0.33 0 0.66 0 1 0 C1 1.65 1 3.3 1 5 C0.67 5 0.34 5 0 5 C0 3.35 0 1.7 0 0 Z " fill="#000000" transform="translate(176,283)"/>
<path d="M0 0 C0.33 0 0.66 0 1 0 C1 1.65 1 3.3 1 5 C0.67 5 0.34 5 0 5 C0 3.35 0 1.7 0 0 Z " fill="#000000" transform="translate(196,272)"/>
<path d="M0 0 C0.33 0 0.66 0 1 0 C1 1.65 1 3.3 1 5 C0.67 5 0.34 5 0 5 C0 3.35 0 1.7 0 0 Z " fill="#000000" transform="translate(32,249)"/>
<path d="M0 0 C0.66 1.32 1.32 2.64 2 4 C1.34 3.67 0.68 3.34 0 3 C0 2.01 0 1.02 0 0 Z " fill="#000000" transform="translate(139,243)"/>
<path d="M0 0 C0 0.99 0 1.98 0 3 C-0.66 2.67 -1.32 2.34 -2 2 C-1.34 1.34 -0.68 0.68 0 0 Z " fill="#000000" transform="translate(247,244)"/>
<path d="M0 0 C0.33 0 0.66 0 1 0 C1 1.65 1 3.3 1 5 C0.67 5 0.34 5 0 5 C0 3.35 0 1.7 0 0 Z " fill="#000000" transform="translate(30,243)"/>
<path d="M0 0 C0.33 0 0.66 0 1 0 C1 1.65 1 3.3 1 5 C0.67 5 0.34 5 0 5 C0 3.35 0 1.7 0 0 Z " fill="#000000" transform="translate(147,230)"/>
<path d="M0 0 C0.33 0 0.66 0 1 0 C1 1.65 1 3.3 1 5 C0.67 5 0.34 5 0 5 C0 3.35 0 1.7 0 0 Z " fill="#000000" transform="translate(148,224)"/>
<path d="M0 0 C0.33 0.99 0.66 1.98 1 3 C0.01 3.495 0.01 3.495 -1 4 C-0.67 2.68 -0.34 1.36 0 0 Z " fill="#000000" transform="translate(123,216)"/>
<path d="M0 0 C0.33 0 0.66 0 1 0 C1 1.65 1 3.3 1 5 C0.67 5 0.34 5 0 5 C0 3.35 0 1.7 0 0 Z " fill="#000000" transform="translate(92,215)"/>
<path d="M0 0 C0.33 0.99 0.66 1.98 1 3 C0.01 3.495 0.01 3.495 -1 4 C-0.67 2.68 -0.34 1.36 0 0 Z " fill="#000000" transform="translate(110,211)"/>
<path d="M0 0 C0.33 0 0.66 0 1 0 C1 1.65 1 3.3 1 5 C0.67 5 0.34 5 0 5 C0 3.35 0 1.7 0 0 Z " fill="#000000" transform="translate(114,197)"/>
<path d="M0 0 C1.65 0 3.3 0 5 0 C5 0.33 5 0.66 5 1 C3.35 1 1.7 1 0 1 C0 0.67 0 0.34 0 0 Z " fill="#000000" transform="translate(262,183)"/>
<path d="M0 0 C0.33 0 0.66 0 1 0 C1 1.65 1 3.3 1 5 C0.67 5 0.34 5 0 5 C0 3.35 0 1.7 0 0 Z " fill="#000100" transform="translate(148,121)"/>
<path d="M0 0 C0.99 0.99 1.98 1.98 3 3 C2.01 2.67 1.02 2.34 0 2 C0 1.34 0 0.68 0 0 Z " fill="#000000" transform="translate(176,101)"/>
<path d="M0 0 C0.33 0 0.66 0 1 0 C1 1.65 1 3.3 1 5 C0.67 5 0.34 5 0 5 C0 3.35 0 1.7 0 0 Z " fill="#000000" transform="translate(128,84)"/>
<path d="M0 0 C0.33 0 0.66 0 1 0 C1 1.65 1 3.3 1 5 C0.67 5 0.34 5 0 5 C0 3.35 0 1.7 0 0 Z " fill="#000000" transform="translate(112,71)"/>
<path d="M0 0 C1.65 0 3.3 0 5 0 C5 0.33 5 0.66 5 1 C3.35 1 1.7 1 0 1 C0 0.67 0 0.34 0 0 Z " fill="#000000" transform="translate(24,60)"/>
<path d="M0 0 C1 4 1 4 1 4 Z " fill="#000000" transform="translate(195,279)"/>
<path d="M0 0 C1 4 1 4 1 4 Z " fill="#000000" transform="translate(193,279)"/>
<path d="M0 0 C1 4 1 4 1 4 Z " fill="#000000" transform="translate(177,279)"/>
<path d="M0 0 C1 4 1 4 1 4 Z " fill="#000000" transform="translate(178,275)"/>
<path d="M0 0 C1 4 1 4 1 4 Z " fill="#000000" transform="translate(100,262)"/>
<path d="M0 0 C1 4 1 4 1 4 Z " fill="#000000" transform="translate(101,258)"/>
<path d="M0 0 C0.99 0.495 0.99 0.495 2 1 C1.67 1.66 1.34 2.32 1 3 C0.67 2.01 0.34 1.02 0 0 Z " fill="#000000" transform="translate(216,239)"/>
<path d="M0 0 C1 4 1 4 1 4 Z " fill="#000000" transform="translate(29,237)"/>
<path d="M0 0 C1 4 1 4 1 4 Z " fill="#000000" transform="translate(148,236)"/>
<path d="M0 0 C1 4 1 4 1 4 Z " fill="#000000" transform="translate(180,232)"/>
<path d="M0 0 C1 4 1 4 1 4 Z " fill="#000000" transform="translate(69,228)"/>
<path d="M0 0 C0 3 0 3 0 3 Z " fill="#000000" transform="translate(132,223)"/>
<path d="M0 0 C1 4 1 4 1 4 Z " fill="#000000" transform="translate(193,220)"/>
<path d="M0 0 C0 3 0 3 0 3 Z " fill="#000000" transform="translate(184,218)"/>
<path d="M0 0 C1 4 1 4 1 4 Z " fill="#000000" transform="translate(150,217)"/>
<path d="M0 0 C1 4 1 4 1 4 Z " fill="#000000" transform="translate(108,216)"/>
<path d="M0 0 C1 4 1 4 1 4 Z " fill="#000000" transform="translate(238,214)"/>
<path d="M0 0 C0 3 0 3 0 3 Z " fill="#000000" transform="translate(125,212)"/>
<path d="M0 0 C1 4 1 4 1 4 Z " fill="#000000" transform="translate(111,207)"/>
<path d="M0 0 C0 3 0 3 0 3 Z " fill="#000000" transform="translate(128,207)"/>
<path d="M0 0 C1 4 1 4 1 4 Z " fill="#000000" transform="translate(92,205)"/>
<path d="M0 0 C1 4 1 4 1 4 Z " fill="#000000" transform="translate(112,203)"/>
<path d="M0 0 C1 4 1 4 1 4 Z " fill="#000000" transform="translate(94,198)"/>
<path d="M0 0 C0.99 0.495 0.99 0.495 2 1 C1.67 1.66 1.34 2.32 1 3 C0.67 2.01 0.34 1.02 0 0 Z " fill="#000000" transform="translate(10,182)"/>
<path d="M0 0 C4 1 4 1 4 1 Z " fill="#000000" transform="translate(242,180)"/>
<path d="M0 0 C4 1 4 1 4 1 Z " fill="#000000" transform="translate(61,173)"/>
<path d="M0 0 C1 4 1 4 1 4 Z " fill="#000000" transform="translate(21,155)"/>
<path d="M0 0 C4 1 4 1 4 1 Z " fill="#000000" transform="translate(142,145)"/>
<path d="M0 0 C1 4 1 4 1 4 Z " fill="#000200" transform="translate(120,124)"/>
<path d="M0 0 C0 3 0 3 0 3 Z " fill="#000100" transform="translate(138,119)"/>
<path d="M0 0 C0.66 0.33 1.32 0.66 2 1 C1.01 1 0.02 1 -1 1 C-0.67 0.67 -0.34 0.34 0 0 Z " fill="#000100" transform="translate(42,119)"/>
<path d="M0 0 C1 4 1 4 1 4 Z " fill="#000100" transform="translate(163,116)"/>
<path d="M0 0 C4 1 4 1 4 1 Z " fill="#000000" transform="translate(238,112)"/>
<path d="M0 0 C0 3 0 3 0 3 Z " fill="#000000" transform="translate(31,104)"/>
<path d="M0 0 C0 3 0 3 0 3 Z " fill="#000000" transform="translate(48,97)"/>
<path d="M0 0 C0.99 0.495 0.99 0.495 2 1 C1.67 1.66 1.34 2.32 1 3 C0.67 2.01 0.34 1.02 0 0 Z " fill="#000000" transform="translate(117,94)"/>
<path d="M0 0 C0.66 0.33 1.32 0.66 2 1 C1.01 1 0.02 1 -1 1 C-0.67 0.67 -0.34 0.34 0 0 Z " fill="#000100" transform="translate(252,92)"/>
<path d="M0 0 C1 4 1 4 1 4 Z " fill="#000100" transform="translate(225,73)"/>
<path d="M0 0 C1 4 1 4 1 4 Z " fill="#000000" transform="translate(205,73)"/>
<path d="M0 0 C1 4 1 4 1 4 Z " fill="#000000" transform="translate(149,63)"/>
<path d="M0 0 C1 4 1 4 1 4 Z " fill="#000100" transform="translate(227,64)"/>
<path d="M0 0 C0.99 0.33 1.98 0.66 3 1 C2.01 1 1.02 1 0 1 C0 0.67 0 0.34 0 0 Z " fill="#000000" transform="translate(13,55)"/>
<path d="M0 0 C0 3 0 3 0 3 Z " fill="#000000" transform="translate(256,54)"/>
<path d="M0 0 C1 4 1 4 1 4 Z " fill="#000000" transform="translate(0,51)"/>
<path d="M0 0 C1 4 1 4 1 4 Z " fill="#000000" transform="translate(9,46)"/>
<path d="M0 0 C4 1 4 1 4 1 Z " fill="#000100" transform="translate(157,46)"/>
<path d="M0 0 C1 4 1 4 1 4 Z " fill="#000100" transform="translate(9,34)"/>
<path d="M0 0 C1 4 1 4 1 4 Z " fill="#000000" transform="translate(265,33)"/>
<path d="M0 0 C1 4 1 4 1 4 Z " fill="#000000" transform="translate(0,29)"/>
<path d="M0 0 C4 1 4 1 4 1 Z " fill="#000100" transform="translate(182,29)"/>
<path d="" fill="#000000" transform="translate(0,0)"/>
<path d="" fill="#000000" transform="translate(0,0)"/>
<path d="M0 0 C0.99 0.495 0.99 0.495 2 1 C1.01 1.495 1.01 1.495 0 2 C0 1.34 0 0.68 0 0 Z " fill="#000000" transform="translate(54,266)"/>
<path d="M0 0 C3 1 3 1 3 1 Z " fill="#000000" transform="translate(40,263)"/>
<path d="M0 0 C3 1 3 1 3 1 Z " fill="#000000" transform="translate(176,256)"/>
<path d="M0 0 C3 1 3 1 3 1 Z " fill="#000000" transform="translate(154,253)"/>
<path d="" fill="#000000" transform="translate(0,0)"/>
<path d="M0 0 C0.33 0.66 0.66 1.32 1 2 C0.34 1.67 -0.32 1.34 -1 1 C-0.67 0.67 -0.34 0.34 0 0 Z " fill="#000000" transform="translate(243,248)"/>
<path d="" fill="#000000" transform="translate(0,0)"/>
<path d="" fill="#000000" transform="translate(0,0)"/>
<path d="" fill="#000000" transform="translate(0,0)"/>
<path d="" fill="#000000" transform="translate(0,0)"/>
<path d="" fill="#000000" transform="translate(0,0)"/>
<path d="M0 0 C0.99 0.495 0.99 0.495 2 1 C1.01 1.495 1.01 1.495 0 2 C0 1.34 0 0.68 0 0 Z " fill="#000000" transform="translate(213,216)"/>
<path d="M0 0 C0.99 0.495 0.99 0.495 2 1 C1.01 1.495 1.01 1.495 0 2 C0 1.34 0 0.68 0 0 Z " fill="#000000" transform="translate(215,214)"/>
<path d="M0 0 C0.99 0.495 0.99 0.495 2 1 C1.01 1.495 1.01 1.495 0 2 C0 1.34 0 0.68 0 0 Z " fill="#000000" transform="translate(182,206)"/>
<path d="" fill="#000000" transform="translate(0,0)"/>
<path d="" fill="#000000" transform="translate(0,0)"/>
<path d="" fill="#000000" transform="translate(0,0)"/>
<path d="M0 0 C3 1 3 1 3 1 Z " fill="#000000" transform="translate(155,197)"/>
<path d="M0 0 C0.99 0.495 0.99 0.495 2 1 C1.01 1.495 1.01 1.495 0 2 C0 1.34 0 0.68 0 0 Z " fill="#000000" transform="translate(213,194)"/>
<path d="" fill="#000000" transform="translate(0,0)"/>
<path d="M0 0 C3 1 3 1 3 1 Z " fill="#000000" transform="translate(254,191)"/>
<path d="" fill="#000000" transform="translate(0,0)"/>
<path d="" fill="#000000" transform="translate(0,0)"/>
<path d="M0 0 C3 1 3 1 3 1 Z " fill="#000000" transform="translate(248,180)"/>
<path d="" fill="#000000" transform="translate(0,0)"/>
<path d="M0 0 C3 1 3 1 3 1 Z " fill="#000000" transform="translate(70,172)"/>
<path d="M0 0 C0.66 0.66 1.32 1.32 2 2 C1.34 2 0.68 2 0 2 C0 1.34 0 0.68 0 0 Z " fill="#000000" transform="translate(126,134)"/>
<path d="" fill="#000000" transform="translate(0,0)"/>
<path d="" fill="#000000" transform="translate(0,0)"/>
<path d="M0 0 C0.99 0.495 0.99 0.495 2 1 C1.01 1.495 1.01 1.495 0 2 C0 1.34 0 0.68 0 0 Z " fill="#000000" transform="translate(131,108)"/>
<path d="M0 0 C3 1 3 1 3 1 Z " fill="#000100" transform="translate(179,104)"/>
<path d="" fill="#000000" transform="translate(0,0)"/>
<path d="M0 0 C0.33 0.66 0.66 1.32 1 2 C0.34 1.67 -0.32 1.34 -1 1 C-0.67 0.67 -0.34 0.34 0 0 Z " fill="#000000" transform="translate(224,99)"/>
<path d="M0 0 C0.33 0.66 0.66 1.32 1 2 C0.34 1.67 -0.32 1.34 -1 1 C-0.67 0.67 -0.34 0.34 0 0 Z " fill="#000100" transform="translate(226,97)"/>
<path d="" fill="#000000" transform="translate(0,0)"/>
<path d="" fill="#000100" transform="translate(0,0)"/>
<path d="M0 0 C0.66 0.66 1.32 1.32 2 2 C1.34 2 0.68 2 0 2 C0 1.34 0 0.68 0 0 Z " fill="#000100" transform="translate(115,92)"/>
<path d="" fill="#000000" transform="translate(0,0)"/>
<path d="" fill="#000000" transform="translate(0,0)"/>
<path d="" fill="#000100" transform="translate(0,0)"/>
<path d="" fill="#000000" transform="translate(0,0)"/>
<path d="" fill="#000000" transform="translate(0,0)"/>
<path d="M0 0 C0.66 0 1.32 0 2 0 C1.67 0.66 1.34 1.32 1 2 C0.67 1.34 0.34 0.68 0 0 Z " fill="#000100" transform="translate(76,65)"/>
<path d="M0 0 C3 1 3 1 3 1 Z " fill="#000000" transform="translate(70,63)"/>
<path d="" fill="#000000" transform="translate(0,0)"/>
<path d="M0 0 C3 1 3 1 3 1 Z " fill="#000000" transform="translate(156,60)"/>
<path d="M0 0 C3 1 3 1 3 1 Z " fill="#000000" transform="translate(195,55)"/>
<path d="M0 0 C3 1 3 1 3 1 Z " fill="#000100" transform="translate(161,47)"/>
<path d="" fill="#000000" transform="translate(0,0)"/>
<path d="" fill="#000000" transform="translate(0,0)"/>
<path d="" fill="#000000" transform="translate(0,0)"/>
<path d="" fill="#000000" transform="translate(0,0)"/>
<path d="M0 0 C0.99 0.495 0.99 0.495 2 1 C1.01 1.495 1.01 1.495 0 2 C0 1.34 0 0.68 0 0 Z " fill="#000000" transform="translate(184,34)"/>
<path d="M0 0 C3 1 3 1 3 1 Z " fill="#000000" transform="translate(169,31)"/>
<path d="M0 0 C3 1 3 1 3 1 Z " fill="#000000" transform="translate(179,30)"/>
<path d="M0 0 C0.66 0 1.32 0 2 0 C1.67 0.66 1.34 1.32 1 2 C0.67 1.34 0.34 0.68 0 0 Z " fill="#000000" transform="translate(50,10)"/>
<path d="M0 0 C0.99 0.495 0.99 0.495 2 1 C1.01 1.495 1.01 1.495 0 2 C0 1.34 0 0.68 0 0 Z " fill="#000000" transform="translate(17,3)"/>
<path d="" fill="#000000" transform="translate(0,0)"/>
<path d="M0 0 C2 1 2 1 2 1 Z " fill="#000000" transform="translate(83,284)"/>
<path d="M0 0 C2 1 2 1 2 1 Z " fill="#000000" transform="translate(81,283)"/>
<path d="" fill="#000000" transform="translate(0,0)"/>
<path d="" fill="#000000" transform="translate(0,0)"/>
<path d="" fill="#000000" transform="translate(0,0)"/>
<path d="" fill="#000000" transform="translate(0,0)"/>
<path d="" fill="#000000" transform="translate(0,0)"/>
<path d="" fill="#000000" transform="translate(0,0)"/>
<path d="" fill="#000000" transform="translate(0,0)"/>
<path d="" fill="#000000" transform="translate(0,0)"/>
<path d="" fill="#000000" transform="translate(0,0)"/>
<path d="" fill="#000000" transform="translate(0,0)"/>
<path d="" fill="#000000" transform="translate(0,0)"/>
<path d="" fill="#000000" transform="translate(0,0)"/>
<path d="M0 0 C2 1 2 1 2 1 Z " fill="#000000" transform="translate(65,258)"/>
<path d="" fill="#000000" transform="translate(0,0)"/>
<path d="" fill="#000000" transform="translate(0,0)"/>
<path d="" fill="#000000" transform="translate(0,0)"/>
<path d="M0 0 C2 1 2 1 2 1 Z " fill="#000000" transform="translate(232,253)"/>
<path d="M0 0 C2 1 2 1 2 1 Z " fill="#000000" transform="translate(238,251)"/>
<path d="M0 0 C2 1 2 1 2 1 Z " fill="#000000" transform="translate(227,251)"/>
<path d="" fill="#000000" transform="translate(0,0)"/>
<path d="M0 0 C2 1 2 1 2 1 Z " fill="#000000" transform="translate(106,245)"/>
<path d="" fill="#000000" transform="translate(0,0)"/>
<path d="" fill="#000000" transform="translate(0,0)"/>
<path d="" fill="#000000" transform="translate(0,0)"/>
<path d="" fill="#000000" transform="translate(0,0)"/>
<path d="" fill="#000000" transform="translate(0,0)"/>
<path d="" fill="#000000" transform="translate(0,0)"/>
<path d="" fill="#000000" transform="translate(0,0)"/>
<path d="" fill="#000000" transform="translate(0,0)"/>
<path d="" fill="#000000" transform="translate(0,0)"/>
<path d="" fill="#000000" transform="translate(0,0)"/>
<path d="" fill="#000000" transform="translate(0,0)"/>
<path d="" fill="#000000" transform="translate(0,0)"/>
<path d="" fill="#000000" transform="translate(0,0)"/>
<path d="M0 0 C2 1 2 1 2 1 Z " fill="#000000" transform="translate(247,234)"/>
<path d="" fill="#000000" transform="translate(0,0)"/>
<path d="" fill="#000000" transform="translate(0,0)"/>
<path d="" fill="#000000" transform="translate(0,0)"/>
<path d="" fill="#000000" transform="translate(0,0)"/>
<path d="" fill="#000000" transform="translate(0,0)"/>
<path d="" fill="#000000" transform="translate(0,0)"/>
<path d="" fill="#000000" transform="translate(0,0)"/>
<path d="" fill="#000000" transform="translate(0,0)"/>
<path d="" fill="#000000" transform="translate(0,0)"/>
<path d="" fill="#000000" transform="translate(0,0)"/>
<path d="" fill="#000000" transform="translate(0,0)"/>
<path d="" fill="#000000" transform="translate(0,0)"/>
<path d="" fill="#000000" transform="translate(0,0)"/>
<path d="" fill="#000000" transform="translate(0,0)"/>
<path d="" fill="#000000" transform="translate(0,0)"/>
<path d="" fill="#000000" transform="translate(0,0)"/>
<path d="" fill="#000000" transform="translate(0,0)"/>
<path d="" fill="#000000" transform="translate(0,0)"/>
<path d="" fill="#000000" transform="translate(0,0)"/>
<path d="" fill="#000000" transform="translate(0,0)"/>
<path d="" fill="#000000" transform="translate(0,0)"/>
<path d="" fill="#000000" transform="translate(0,0)"/>
<path d="" fill="#000000" transform="translate(0,0)"/>
<path d="" fill="#000000" transform="translate(0,0)"/>
<path d="" fill="#000000" transform="translate(0,0)"/>
<path d="" fill="#000000" transform="translate(0,0)"/>
<path d="M0 0 C2 1 2 1 2 1 Z " fill="#000000" transform="translate(235,208)"/>
<path d="M0 0 C2 1 2 1 2 1 Z " fill="#000000" transform="translate(232,208)"/>
<path d="M0 0 C2 1 2 1 2 1 Z " fill="#000000" transform="translate(221,208)"/>
<path d="M0 0 C2 1 2 1 2 1 Z " fill="#000000" transform="translate(223,207)"/>
<path d="" fill="#000000" transform="translate(0,0)"/>
<path d="" fill="#000000" transform="translate(0,0)"/>
<path d="" fill="#000000" transform="translate(0,0)"/>
<path d="M0 0 C2 1 2 1 2 1 Z " fill="#000000" transform="translate(243,202)"/>
<path d="" fill="#000000" transform="translate(0,0)"/>
<path d="" fill="#000000" transform="translate(0,0)"/>
<path d="" fill="#000000" transform="translate(0,0)"/>
<path d="" fill="#000000" transform="translate(0,0)"/>
<path d="M0 0 C2 1 2 1 2 1 Z " fill="#000000" transform="translate(135,197)"/>
<path d="" fill="#000000" transform="translate(0,0)"/>
<path d="" fill="#000000" transform="translate(0,0)"/>
<path d="" fill="#000000" transform="translate(0,0)"/>
<path d="" fill="#000000" transform="translate(0,0)"/>
<path d="M0 0 C2 1 2 1 2 1 Z " fill="#000000" transform="translate(100,189)"/>
<path d="" fill="#000000" transform="translate(0,0)"/>
<path d="M0 0 C2 1 2 1 2 1 Z " fill="#000000" transform="translate(227,184)"/>
<path d="" fill="#000000" transform="translate(0,0)"/>
<path d="" fill="#000000" transform="translate(0,0)"/>
<path d="" fill="#000000" transform="translate(0,0)"/>
<path d="" fill="#000000" transform="translate(0,0)"/>
<path d="" fill="#000000" transform="translate(0,0)"/>
<path d="" fill="#000000" transform="translate(0,0)"/>
<path d="M0 0 C2 1 2 1 2 1 Z " fill="#000000" transform="translate(85,157)"/>
<path d="" fill="#000000" transform="translate(0,0)"/>
<path d="M0 0 C2 1 2 1 2 1 Z " fill="#000000" transform="translate(154,145)"/>
<path d="M0 0 C2 1 2 1 2 1 Z " fill="#000100" transform="translate(140,144)"/>
<path d="" fill="#000000" transform="translate(0,0)"/>
<path d="" fill="#000000" transform="translate(0,0)"/>
<path d="" fill="#000100" transform="translate(0,0)"/>
<path d="" fill="#000000" transform="translate(0,0)"/>
<path d="" fill="#000000" transform="translate(0,0)"/>
<path d="" fill="#000100" transform="translate(0,0)"/>
<path d="" fill="#000000" transform="translate(0,0)"/>
<path d="" fill="#000100" transform="translate(0,0)"/>
<path d="" fill="#000000" transform="translate(0,0)"/>
<path d="M0 0 C2 1 2 1 2 1 Z " fill="#000100" transform="translate(36,122)"/>
<path d="" fill="#000100" transform="translate(0,0)"/>
<path d="" fill="#000000" transform="translate(0,0)"/>
<path d="" fill="#000100" transform="translate(0,0)"/>
<path d="" fill="#000000" transform="translate(0,0)"/>
<path d="M0 0 C2 1 2 1 2 1 Z " fill="#000000" transform="translate(245,112)"/>
<path d="" fill="#000100" transform="translate(0,0)"/>
<path d="M0 0 C2 1 2 1 2 1 Z " fill="#000100" transform="translate(103,106)"/>
<path d="" fill="#000000" transform="translate(0,0)"/>
<path d="" fill="#000000" transform="translate(0,0)"/>
<path d="" fill="#000000" transform="translate(0,0)"/>
<path d="" fill="#000000" transform="translate(0,0)"/>
<path d="" fill="#000100" transform="translate(0,0)"/>
<path d="" fill="#000100" transform="translate(0,0)"/>
<path d="" fill="#000100" transform="translate(0,0)"/>
<path d="" fill="#000000" transform="translate(0,0)"/>
<path d="" fill="#000100" transform="translate(0,0)"/>
<path d="" fill="#000000" transform="translate(0,0)"/>
<path d="" fill="#000000" transform="translate(0,0)"/>
<path d="" fill="#000100" transform="translate(0,0)"/>
<path d="" fill="#000100" transform="translate(0,0)"/>
<path d="" fill="#000100" transform="translate(0,0)"/>
<path d="" fill="#000100" transform="translate(0,0)"/>
<path d="" fill="#000000" transform="translate(0,0)"/>
<path d="" fill="#000000" transform="translate(0,0)"/>
<path d="" fill="#000200" transform="translate(0,0)"/>
<path d="" fill="#000000" transform="translate(0,0)"/>
<path d="" fill="#000000" transform="translate(0,0)"/>
<path d="" fill="#000100" transform="translate(0,0)"/>
<path d="" fill="#000000" transform="translate(0,0)"/>
<path d="" fill="#000100" transform="translate(0,0)"/>
<path d="" fill="#000100" transform="translate(0,0)"/>
<path d="" fill="#000000" transform="translate(0,0)"/>
<path d="" fill="#000000" transform="translate(0,0)"/>
<path d="" fill="#000000" transform="translate(0,0)"/>
<path d="" fill="#000000" transform="translate(0,0)"/>
<path d="" fill="#000000" transform="translate(0,0)"/>
<path d="" fill="#000000" transform="translate(0,0)"/>
<path d="" fill="#000100" transform="translate(0,0)"/>
<path d="" fill="#000000" transform="translate(0,0)"/>
<path d="" fill="#000100" transform="translate(0,0)"/>
<path d="" fill="#000100" transform="translate(0,0)"/>
<path d="" fill="#000100" transform="translate(0,0)"/>
<path d="" fill="#000000" transform="translate(0,0)"/>
<path d="M0 0 C2 1 2 1 2 1 Z " fill="#000100" transform="translate(41,75)"/>
<path d="M0 0 C2 1 2 1 2 1 Z " fill="#000100" transform="translate(35,75)"/>
<path d="" fill="#000000" transform="translate(0,0)"/>
<path d="M0 0 C2 1 2 1 2 1 Z " fill="#000000" transform="translate(38,73)"/>
<path d="M0 0 C2 1 2 1 2 1 Z " fill="#000000" transform="translate(273,72)"/>
<path d="" fill="#000000" transform="translate(0,0)"/>
<path d="" fill="#000000" transform="translate(0,0)"/>
<path d="" fill="#000000" transform="translate(0,0)"/>
<path d="" fill="#000000" transform="translate(0,0)"/>
<path d="" fill="#000100" transform="translate(0,0)"/>
<path d="" fill="#000000" transform="translate(0,0)"/>
<path d="" fill="#000200" transform="translate(0,0)"/>
<path d="" fill="#000000" transform="translate(0,0)"/>
<path d="" fill="#000000" transform="translate(0,0)"/>
<path d="" fill="#000000" transform="translate(0,0)"/>
<path d="" fill="#000100" transform="translate(0,0)"/>
<path d="" fill="#000000" transform="translate(0,0)"/>
<path d="M0 0 C2 1 2 1 2 1 Z " fill="#000000" transform="translate(160,60)"/>
<path d="M0 0 C2 1 2 1 2 1 Z " fill="#000000" transform="translate(103,60)"/>
<path d="M0 0 C2 1 2 1 2 1 Z " fill="#000000" transform="translate(97,60)"/>
<path d="" fill="#000000" transform="translate(0,0)"/>
<path d="M0 0 C2 1 2 1 2 1 Z " fill="#000100" transform="translate(100,59)"/>
<path d="" fill="#000000" transform="translate(0,0)"/>
<path d="" fill="#000100" transform="translate(0,0)"/>
<path d="" fill="#000100" transform="translate(0,0)"/>
<path d="" fill="#000000" transform="translate(0,0)"/>
<path d="" fill="#000100" transform="translate(0,0)"/>
<path d="" fill="#000100" transform="translate(0,0)"/>
<path d="" fill="#000100" transform="translate(0,0)"/>
<path d="" fill="#000000" transform="translate(0,0)"/>
<path d="" fill="#000100" transform="translate(0,0)"/>
<path d="" fill="#000100" transform="translate(0,0)"/>
<path d="" fill="#000000" transform="translate(0,0)"/>
<path d="" fill="#000000" transform="translate(0,0)"/>
<path d="" fill="#000000" transform="translate(0,0)"/>
<path d="" fill="#000000" transform="translate(0,0)"/>
<path d="" fill="#000000" transform="translate(0,0)"/>
<path d="" fill="#000000" transform="translate(0,0)"/>
<path d="" fill="#000000" transform="translate(0,0)"/>
<path d="" fill="#000100" transform="translate(0,0)"/>
<path d="" fill="#000000" transform="translate(0,0)"/>
<path d="" fill="#000000" transform="translate(0,0)"/>
<path d="M0 0 C2 1 2 1 2 1 Z " fill="#000000" transform="translate(163,33)"/>
<path d="" fill="#000100" transform="translate(0,0)"/>
<path d="" fill="#000100" transform="translate(0,0)"/>
<path d="" fill="#000000" transform="translate(0,0)"/>
<path d="M0 0 C2 1 2 1 2 1 Z " fill="#000100" transform="translate(167,32)"/>
<path d="" fill="#000100" transform="translate(0,0)"/>
<path d="" fill="#000100" transform="translate(0,0)"/>
<path d="" fill="#000100" transform="translate(0,0)"/>
<path d="" fill="#000000" transform="translate(0,0)"/>
<path d="" fill="#000100" transform="translate(0,0)"/>
<path d="" fill="#000000" transform="translate(0,0)"/>
<path d="" fill="#000100" transform="translate(0,0)"/>
<path d="" fill="#000100" transform="translate(0,0)"/>
<path d="" fill="#000000" transform="translate(0,0)"/>
<path d="" fill="#000000" transform="translate(0,0)"/>
<path d="" fill="#000100" transform="translate(0,0)"/>
<path d="" fill="#000000" transform="translate(0,0)"/>
<path d="" fill="#000000" transform="translate(0,0)"/>
<path d="M0 0 C2 1 2 1 2 1 Z " fill="#000100" transform="translate(251,22)"/>
<path d="" fill="#000100" transform="translate(0,0)"/>
<path d="" fill="#000000" transform="translate(0,0)"/>
<path d="" fill="#000000" transform="translate(0,0)"/>
<path d="" fill="#000000" transform="translate(0,0)"/>
<path d="" fill="#000000" transform="translate(0,0)"/>
<path d="" fill="#000000" transform="translate(0,0)"/>
<path d="" fill="#000000" transform="translate(0,0)"/>
<path d="" fill="#000000" transform="translate(0,0)"/>
<path d="" fill="#000000" transform="translate(0,0)"/>
<path d="" fill="#000000" transform="translate(0,0)"/>
<path d="" fill="#000000" transform="translate(0,0)"/>
<path d="" fill="#000000" transform="translate(0,0)"/>
<path d="" fill="#000000" transform="translate(0,0)"/>
<path d="" fill="#000000" transform="translate(0,0)"/>
<path d="" fill="#000000" transform="translate(0,0)"/>
<path d="" fill="#000000" transform="translate(0,0)"/>
<path d="" fill="#000000" transform="translate(0,0)"/>
<path d="" fill="#000000" transform="translate(0,0)"/>
<path d="" fill="#000000" transform="translate(0,0)"/>
<path d="" fill="#000000" transform="translate(0,0)"/>
<path d="" fill="#000000" transform="translate(0,0)"/>
<path d="" fill="#000000" transform="translate(0,0)"/>
<path d="" fill="#000000" transform="translate(0,0)"/>
<path d="" fill="#000000" transform="translate(0,0)"/>
<path d="" fill="#000000" transform="translate(0,0)"/>
<path d="" fill="#000000" transform="translate(0,0)"/>
<path d="" fill="#000000" transform="translate(0,0)"/>
<path d="" fill="#000000" transform="translate(0,0)"/>
<path d="" fill="#000000" transform="translate(0,0)"/>
<path d="" fill="#000000" transform="translate(0,0)"/>
<path d="" fill="#000000" transform="translate(0,0)"/>
<path d="" fill="#000000" transform="translate(0,0)"/>
<path d="" fill="#000000" transform="translate(0,0)"/>
<path d="" fill="#000000" transform="translate(0,0)"/>
<path d="" fill="#000000" transform="translate(0,0)"/>
<path d="" fill="#000000" transform="translate(0,0)"/>
<path d="" fill="#000000" transform="translate(0,0)"/>
<path d="" fill="#000000" transform="translate(0,0)"/>
<path d="" fill="#000000" transform="translate(0,0)"/>
<path d="" fill="#000000" transform="translate(0,0)"/>
<path d="" fill="#000000" transform="translate(0,0)"/>
<path d="" fill="#000000" transform="translate(0,0)"/>
<path d="" fill="#000000" transform="translate(0,0)"/>
<path d="" fill="#000000" transform="translate(0,0)"/>
<path d="" fill="#000000" transform="translate(0,0)"/>
<path d="" fill="#000000" transform="translate(0,0)"/>
<path d="" fill="#000000" transform="translate(0,0)"/>
<path d="" fill="#000000" transform="translate(0,0)"/>
<path d="" fill="#000000" transform="translate(0,0)"/>
<path d="" fill="#000000" transform="translate(0,0)"/>
<path d="" fill="#000000" transform="translate(0,0)"/>
<path d="" fill="#000000" transform="translate(0,0)"/>
<path d="" fill="#000000" transform="translate(0,0)"/>
<path d="" fill="#000000" transform="translate(0,0)"/>
<path d="" fill="#000000" transform="translate(0,0)"/>
<path d="" fill="#000000" transform="translate(0,0)"/>
<path d="" fill="#000000" transform="translate(0,0)"/>
<path d="" fill="#000000" transform="translate(0,0)"/>
<path d="" fill="#000000" transform="translate(0,0)"/>
<path d="" fill="#000000" transform="translate(0,0)"/>
<path d="" fill="#000000" transform="translate(0,0)"/>
<path d="" fill="#000000" transform="translate(0,0)"/>
<path d="" fill="#000000" transform="translate(0,0)"/>
<path d="" fill="#000000" transform="translate(0,0)"/>
<path d="" fill="#000000" transform="translate(0,0)"/>
<path d="" fill="#000000" transform="translate(0,0)"/>
<path d="" fill="#000000" transform="translate(0,0)"/>
<path d="" fill="#000000" transform="translate(0,0)"/>
<path d="" fill="#000000" transform="translate(0,0)"/>
<path d="" fill="#000000" transform="translate(0,0)"/>
<path d="" fill="#000000" transform="translate(0,0)"/>
<path d="" fill="#000000" transform="translate(0,0)"/>
<path d="" fill="#000000" transform="translate(0,0)"/>
<path d="" fill="#000000" transform="translate(0,0)"/>
<path d="" fill="#000000" transform="translate(0,0)"/>
<path d="" fill="#000000" transform="translate(0,0)"/>
<path d="" fill="#000000" transform="translate(0,0)"/>
<path d="" fill="#000000" transform="translate(0,0)"/>
<path d="" fill="#000000" transform="translate(0,0)"/>
<path d="" fill="#000000" transform="translate(0,0)"/>
<path d="" fill="#000000" transform="translate(0,0)"/>
<path d="" fill="#000000" transform="translate(0,0)"/>
<path d="" fill="#000000" transform="translate(0,0)"/>
<path d="" fill="#000000" transform="translate(0,0)"/>
<path d="" fill="#000000" transform="translate(0,0)"/>
<path d="" fill="#000000" transform="translate(0,0)"/>
<path d="" fill="#000000" transform="translate(0,0)"/>
<path d="" fill="#000000" transform="translate(0,0)"/>
<path d="" fill="#000000" transform="translate(0,0)"/>
<path d="" fill="#000000" transform="translate(0,0)"/>
<path d="" fill="#000000" transform="translate(0,0)"/>
<path d="" fill="#000000" transform="translate(0,0)"/>
<path d="" fill="#000000" transform="translate(0,0)"/>
<path d="" fill="#000000" transform="translate(0,0)"/>
<path d="" fill="#000000" transform="translate(0,0)"/>
<path d="" fill="#000000" transform="translate(0,0)"/>
<path d="" fill="#000000" transform="translate(0,0)"/>
<path d="" fill="#000000" transform="translate(0,0)"/>
<path d="" fill="#000000" transform="translate(0,0)"/>
<path d="" fill="#000000" transform="translate(0,0)"/>
<path d="" fill="#000000" transform="translate(0,0)"/>
<path d="" fill="#000000" transform="translate(0,0)"/>
<path d="" fill="#000000" transform="translate(0,0)"/>
<path d="" fill="#000000" transform="translate(0,0)"/>
<path d="" fill="#000000" transform="translate(0,0)"/>
<path d="" fill="#000000" transform="translate(0,0)"/>
<path d="" fill="#000000" transform="translate(0,0)"/>
<path d="" fill="#000000" transform="translate(0,0)"/>
<path d="" fill="#000000" transform="translate(0,0)"/>
<path d="" fill="#000000" transform="translate(0,0)"/>
<path d="" fill="#000000" transform="translate(0,0)"/>
<path d="" fill="#000000" transform="translate(0,0)"/>
<path d="" fill="#000000" transform="translate(0,0)"/>
<path d="" fill="#000000" transform="translate(0,0)"/>
<path d="" fill="#000000" transform="translate(0,0)"/>
<path d="" fill="#000000" transform="translate(0,0)"/>
<path d="" fill="#000000" transform="translate(0,0)"/>
<path d="" fill="#000000" transform="translate(0,0)"/>
<path d="" fill="#000000" transform="translate(0,0)"/>
<path d="" fill="#000000" transform="translate(0,0)"/>
<path d="" fill="#000000" transform="translate(0,0)"/>
<path d="" fill="#000000" transform="translate(0,0)"/>
<path d="" fill="#000000" transform="translate(0,0)"/>
<path d="" fill="#000000" transform="translate(0,0)"/>
<path d="" fill="#000000" transform="translate(0,0)"/>
<path d="" fill="#000000" transform="translate(0,0)"/>
<path d="" fill="#000000" transform="translate(0,0)"/>
<path d="" fill="#000000" transform="translate(0,0)"/>
<path d="" fill="#000000" transform="translate(0,0)"/>
<path d="" fill="#000000" transform="translate(0,0)"/>
<path d="" fill="#000000" transform="translate(0,0)"/>
<path d="" fill="#000000" transform="translate(0,0)"/>
<path d="" fill="#000000" transform="translate(0,0)"/>
<path d="" fill="#000000" transform="translate(0,0)"/>
<path d="" fill="#000000" transform="translate(0,0)"/>
<path d="" fill="#000000" transform="translate(0,0)"/>
<path d="" fill="#000000" transform="translate(0,0)"/>
<path d="" fill="#000000" transform="translate(0,0)"/>
<path d="" fill="#000000" transform="translate(0,0)"/>
<path d="" fill="#000000" transform="translate(0,0)"/>
<path d="" fill="#000000" transform="translate(0,0)"/>
<path d="" fill="#000000" transform="translate(0,0)"/>
<path d="" fill="#000000" transform="translate(0,0)"/>
<path d="" fill="#000000" transform="translate(0,0)"/>
<path d="" fill="#000000" transform="translate(0,0)"/>
<path d="" fill="#000000" transform="translate(0,0)"/>
<path d="" fill="#000000" transform="translate(0,0)"/>
<path d="" fill="#000000" transform="translate(0,0)"/>
<path d="" fill="#000000" transform="translate(0,0)"/>
<path d="" fill="#000000" transform="translate(0,0)"/>
<path d="" fill="#000000" transform="translate(0,0)"/>
<path d="" fill="#000000" transform="translate(0,0)"/>
<path d="" fill="#000000" transform="translate(0,0)"/>
<path d="" fill="#000000" transform="translate(0,0)"/>
<path d="" fill="#000000" transform="translate(0,0)"/>
<path d="" fill="#000000" transform="translate(0,0)"/>
<path d="" fill="#000000" transform="translate(0,0)"/>
<path d="" fill="#000000" transform="translate(0,0)"/>
<path d="" fill="#000000" transform="translate(0,0)"/>
<path d="" fill="#000000" transform="translate(0,0)"/>
<path d="" fill="#000100" transform="translate(0,0)"/>
<path d="" fill="#000100" transform="translate(0,0)"/>
<path d="" fill="#000100" transform="translate(0,0)"/>
<path d="" fill="#000000" transform="translate(0,0)"/>
<path d="" fill="#000100" transform="translate(0,0)"/>
<path d="" fill="#000100" transform="translate(0,0)"/>
<path d="" fill="#000100" transform="translate(0,0)"/>
<path d="" fill="#000000" transform="translate(0,0)"/>
<path d="" fill="#000200" transform="translate(0,0)"/>
<path d="" fill="#000100" transform="translate(0,0)"/>
<path d="" fill="#000100" transform="translate(0,0)"/>
<path d="" fill="#000000" transform="translate(0,0)"/>
<path d="" fill="#000000" transform="translate(0,0)"/>
<path d="" fill="#000100" transform="translate(0,0)"/>
<path d="" fill="#000100" transform="translate(0,0)"/>
<path d="" fill="#000000" transform="translate(0,0)"/>
<path d="" fill="#000100" transform="translate(0,0)"/>
<path d="" fill="#000100" transform="translate(0,0)"/>
<path d="" fill="#000100" transform="translate(0,0)"/>
<path d="" fill="#000100" transform="translate(0,0)"/>
<path d="" fill="#000000" transform="translate(0,0)"/>
<path d="" fill="#000000" transform="translate(0,0)"/>
<path d="" fill="#000000" transform="translate(0,0)"/>
<path d="" fill="#000100" transform="translate(0,0)"/>
<path d="" fill="#000100" transform="translate(0,0)"/>
<path d="" fill="#000000" transform="translate(0,0)"/>
<path d="" fill="#000200" transform="translate(0,0)"/>
<path d="" fill="#000000" transform="translate(0,0)"/>
<path d="" fill="#000000" transform="translate(0,0)"/>
<path d="" fill="#000200" transform="translate(0,0)"/>
<path d="" fill="#000000" transform="translate(0,0)"/>
<path d="" fill="#000100" transform="translate(0,0)"/>
<path d="" fill="#000000" transform="translate(0,0)"/>
<path d="" fill="#000200" transform="translate(0,0)"/>
<path d="" fill="#000100" transform="translate(0,0)"/>
<path d="" fill="#000100" transform="translate(0,0)"/>
<path d="" fill="#000100" transform="translate(0,0)"/>
<path d="" fill="#000200" transform="translate(0,0)"/>
<path d="" fill="#000000" transform="translate(0,0)"/>
<path d="" fill="#000100" transform="translate(0,0)"/>
<path d="" fill="#000200" transform="translate(0,0)"/>
<path d="" fill="#000000" transform="translate(0,0)"/>
<path d="" fill="#000100" transform="translate(0,0)"/>
<path d="" fill="#000000" transform="translate(0,0)"/>
<path d="" fill="#000200" transform="translate(0,0)"/>
<path d="" fill="#000100" transform="translate(0,0)"/>
<path d="" fill="#000100" transform="translate(0,0)"/>
<path d="" fill="#000100" transform="translate(0,0)"/>
<path d="" fill="#000100" transform="translate(0,0)"/>
<path d="" fill="#000000" transform="translate(0,0)"/>
<path d="" fill="#000100" transform="translate(0,0)"/>
<path d="" fill="#000100" transform="translate(0,0)"/>
<path d="" fill="#000100" transform="translate(0,0)"/>
<path d="" fill="#000100" transform="translate(0,0)"/>
<path d="" fill="#000000" transform="translate(0,0)"/>
<path d="" fill="#000000" transform="translate(0,0)"/>
<path d="" fill="#000100" transform="translate(0,0)"/>
<path d="" fill="#000000" transform="translate(0,0)"/>
<path d="" fill="#000000" transform="translate(0,0)"/>
<path d="" fill="#000000" transform="translate(0,0)"/>
<path d="" fill="#000000" transform="translate(0,0)"/>
<path d="" fill="#000000" transform="translate(0,0)"/>
<path d="" fill="#000100" transform="translate(0,0)"/>
<path d="" fill="#000100" transform="translate(0,0)"/>
<path d="" fill="#000100" transform="translate(0,0)"/>
<path d="" fill="#000100" transform="translate(0,0)"/>
<path d="" fill="#000000" transform="translate(0,0)"/>
<path d="" fill="#000100" transform="translate(0,0)"/>
<path d="" fill="#000100" transform="translate(0,0)"/>
<path d="" fill="#000000" transform="translate(0,0)"/>
<path d="" fill="#000000" transform="translate(0,0)"/>
<path d="" fill="#000000" transform="translate(0,0)"/>
<path d="" fill="#000100" transform="translate(0,0)"/>
<path d="" fill="#000000" transform="translate(0,0)"/>
<path d="" fill="#000100" transform="translate(0,0)"/>
<path d="" fill="#000000" transform="translate(0,0)"/>
<path d="" fill="#000100" transform="translate(0,0)"/>
<path d="" fill="#000200" transform="translate(0,0)"/>
<path d="" fill="#000000" transform="translate(0,0)"/>
<path d="" fill="#000100" transform="translate(0,0)"/>
<path d="" fill="#000000" transform="translate(0,0)"/>
<path d="" fill="#000200" transform="translate(0,0)"/>
<path d="" fill="#000100" transform="translate(0,0)"/>
<path d="" fill="#000000" transform="translate(0,0)"/>
<path d="" fill="#000200" transform="translate(0,0)"/>
<path d="" fill="#000100" transform="translate(0,0)"/>
<path d="" fill="#000000" transform="translate(0,0)"/>
<path d="" fill="#000000" transform="translate(0,0)"/>
<path d="" fill="#000200" transform="translate(0,0)"/>
<path d="" fill="#000100" transform="translate(0,0)"/>
<path d="" fill="#000100" transform="translate(0,0)"/>
<path d="" fill="#000100" transform="translate(0,0)"/>
<path d="" fill="#000200" transform="translate(0,0)"/>
<path d="" fill="#000100" transform="translate(0,0)"/>
<path d="" fill="#000100" transform="translate(0,0)"/>
<path d="" fill="#000100" transform="translate(0,0)"/>
<path d="" fill="#000100" transform="translate(0,0)"/>
<path d="" fill="#000100" transform="translate(0,0)"/>
<path d="" fill="#000100" transform="translate(0,0)"/>
<path d="" fill="#000300" transform="translate(0,0)"/>
<path d="" fill="#000100" transform="translate(0,0)"/>
<path d="" fill="#000100" transform="translate(0,0)"/>
<path d="" fill="#000000" transform="translate(0,0)"/>
<path d="" fill="#000000" transform="translate(0,0)"/>
<path d="" fill="#000100" transform="translate(0,0)"/>
<path d="" fill="#000100" transform="translate(0,0)"/>
<path d="" fill="#000200" transform="translate(0,0)"/>
<path d="" fill="#000000" transform="translate(0,0)"/>
<path d="" fill="#000000" transform="translate(0,0)"/>
<path d="" fill="#000100" transform="translate(0,0)"/>
<path d="" fill="#000000" transform="translate(0,0)"/>
<path d="" fill="#000000" transform="translate(0,0)"/>
<path d="" fill="#000200" transform="translate(0,0)"/>
<path d="" fill="#000000" transform="translate(0,0)"/>
<path d="" fill="#000000" transform="translate(0,0)"/>
<path d="" fill="#000000" transform="translate(0,0)"/>
<path d="" fill="#000000" transform="translate(0,0)"/>
<path d="" fill="#000000" transform="translate(0,0)"/>
<path d="" fill="#000200" transform="translate(0,0)"/>
<path d="" fill="#000100" transform="translate(0,0)"/>
<path d="" fill="#000100" transform="translate(0,0)"/>
<path d="" fill="#000100" transform="translate(0,0)"/>
<path d="" fill="#000100" transform="translate(0,0)"/>
<path d="" fill="#000100" transform="translate(0,0)"/>
<path d="" fill="#000100" transform="translate(0,0)"/>
<path d="" fill="#000100" transform="translate(0,0)"/>
<path d="" fill="#000200" transform="translate(0,0)"/>
<path d="" fill="#000000" transform="translate(0,0)"/>
<path d="" fill="#000100" transform="translate(0,0)"/>
<path d="" fill="#000100" transform="translate(0,0)"/>
<path d="" fill="#000000" transform="translate(0,0)"/>
<path d="" fill="#000200" transform="translate(0,0)"/>
<path d="" fill="#000000" transform="translate(0,0)"/>
<path d="" fill="#000100" transform="translate(0,0)"/>
<path d="" fill="#000000" transform="translate(0,0)"/>
<path d="" fill="#000100" transform="translate(0,0)"/>
<path d="" fill="#000300" transform="translate(0,0)"/>
<path d="" fill="#000100" transform="translate(0,0)"/>
<path d="" fill="#000200" transform="translate(0,0)"/>
<path d="" fill="#000000" transform="translate(0,0)"/>
<path d="" fill="#000200" transform="translate(0,0)"/>
<path d="" fill="#000100" transform="translate(0,0)"/>
<path d="" fill="#000100" transform="translate(0,0)"/>
<path d="" fill="#000100" transform="translate(0,0)"/>
<path d="" fill="#000100" transform="translate(0,0)"/>
<path d="" fill="#000100" transform="translate(0,0)"/>
<path d="" fill="#000100" transform="translate(0,0)"/>
<path d="" fill="#000200" transform="translate(0,0)"/>
<path d="" fill="#000000" transform="translate(0,0)"/>
<path d="" fill="#000100" transform="translate(0,0)"/>
<path d="" fill="#000000" transform="translate(0,0)"/>
<path d="" fill="#000000" transform="translate(0,0)"/>
<path d="" fill="#000000" transform="translate(0,0)"/>
<path d="" fill="#000100" transform="translate(0,0)"/>
<path d="" fill="#000100" transform="translate(0,0)"/>
<path d="" fill="#000100" transform="translate(0,0)"/>
<path d="" fill="#000000" transform="translate(0,0)"/>
<path d="" fill="#000100" transform="translate(0,0)"/>
<path d="" fill="#000000" transform="translate(0,0)"/>
<path d="" fill="#000000" transform="translate(0,0)"/>
<path d="" fill="#000000" transform="translate(0,0)"/>
<path d="" fill="#000100" transform="translate(0,0)"/>
<path d="" fill="#000000" transform="translate(0,0)"/>
<path d="" fill="#000100" transform="translate(0,0)"/>
<path d="" fill="#000300" transform="translate(0,0)"/>
<path d="" fill="#000000" transform="translate(0,0)"/>
<path d="" fill="#000100" transform="translate(0,0)"/>
<path d="" fill="#000000" transform="translate(0,0)"/>
<path d="" fill="#000100" transform="translate(0,0)"/>
<path d="" fill="#000000" transform="translate(0,0)"/>
<path d="" fill="#000000" transform="translate(0,0)"/>
<path d="" fill="#000100" transform="translate(0,0)"/>
<path d="" fill="#000100" transform="translate(0,0)"/>
<path d="" fill="#000100" transform="translate(0,0)"/>
<path d="" fill="#000200" transform="translate(0,0)"/>
<path d="" fill="#000000" transform="translate(0,0)"/>
<path d="" fill="#000200" transform="translate(0,0)"/>
<path d="" fill="#000100" transform="translate(0,0)"/>
<path d="" fill="#000000" transform="translate(0,0)"/>
<path d="" fill="#000000" transform="translate(0,0)"/>
<path d="" fill="#000000" transform="translate(0,0)"/>
<path d="" fill="#000100" transform="translate(0,0)"/>
<path d="" fill="#000100" transform="translate(0,0)"/>
<path d="" fill="#000000" transform="translate(0,0)"/>
<path d="" fill="#000100" transform="translate(0,0)"/>
<path d="" fill="#000200" transform="translate(0,0)"/>
<path d="" fill="#000000" transform="translate(0,0)"/>
<path d="" fill="#000000" transform="translate(0,0)"/>
<path d="" fill="#000100" transform="translate(0,0)"/>
<path d="" fill="#000100" transform="translate(0,0)"/>
<path d="" fill="#000000" transform="translate(0,0)"/>
<path d="" fill="#000000" transform="translate(0,0)"/>
<path d="" fill="#000000" transform="translate(0,0)"/>
<path d="" fill="#000000" transform="translate(0,0)"/>
<path d="" fill="#000100" transform="translate(0,0)"/>
<path d="" fill="#000100" transform="translate(0,0)"/>
<path d="" fill="#000200" transform="translate(0,0)"/>
<path d="" fill="#000000" transform="translate(0,0)"/>
<path d="" fill="#000000" transform="translate(0,0)"/>
<path d="" fill="#000000" transform="translate(0,0)"/>
<path d="" fill="#000100" transform="translate(0,0)"/>
<path d="" fill="#000100" transform="translate(0,0)"/>
<path d="" fill="#000000" transform="translate(0,0)"/>
<path d="" fill="#000000" transform="translate(0,0)"/>
<path d="" fill="#000000" transform="translate(0,0)"/>
<path d="" fill="#000000" transform="translate(0,0)"/>
<path d="" fill="#000000" transform="translate(0,0)"/>
<path d="" fill="#000100" transform="translate(0,0)"/>
</svg>
